<?xml version="1.0" encoding="UTF-8" standalone="no"?>
<!-- Generator: Adobe Illustrator 25.2.1, SVG Export Plug-In . SVG Version: 6.00 Build 0)  -->

<svg
   version="1.1"
   x="0px"
   y="0px"
   viewBox="0 0 600.90001 300"
   xml:space="preserve"
   id="svg2943"
   width="600.90002"
   height="300"
   sodipodi:docname="get_mnv.svg"
   inkscape:version="1.2 (dc2aedaf03, 2022-05-15)"
   xmlns:inkscape="http://www.inkscape.org/namespaces/inkscape"
   xmlns:sodipodi="http://sodipodi.sourceforge.net/DTD/sodipodi-0.dtd"
   xmlns="http://www.w3.org/2000/svg"
   xmlns:svg="http://www.w3.org/2000/svg"><sodipodi:namedview
   id="namedview21799"
   pagecolor="#ffffff"
   bordercolor="#000000"
   borderopacity="0.25"
   inkscape:showpageshadow="2"
   inkscape:pageopacity="0.0"
   inkscape:pagecheckerboard="0"
   inkscape:deskcolor="#d1d1d1"
   showgrid="false"
   inkscape:zoom="1.0118156"
   inkscape:cx="171.9681"
   inkscape:cy="86.972372"
   inkscape:window-width="1920"
   inkscape:window-height="1009"
   inkscape:window-x="-8"
   inkscape:window-y="-8"
   inkscape:window-maximized="1"
   inkscape:current-layer="svg2943" /><defs
   id="defs2947" />
<style
   type="text/css"
   id="style1393">
	.st0{fill:#F6E81D;}
	.st1{fill:#3460AA;}
	.st2{fill:#9FA31D;}
	.st3{fill:#F3E600;}
	.st4{fill:#2A5DA9;}
	.st5{fill:#E52421;}
	.st6{fill:#010202;}
	.st7{fill:#EF781A;}
	.st8{fill:#66B32E;}
	.st9{opacity:0.46;}
	.st10{fill:#FFFFFF;}
	.st11{font-family:'Neonderthaw-Regular';}
	.st12{font-size:221px;}
	.st13{fill:#E7216A;}
	.st14{font-size:106px;}
	.st15{fill:#149389;}
	.st16{font-family:'TwCenMT-Italic';}
	.st17{font-size:113px;}
	.st18{fill:#6F398D;}
</style>



<g
   id="Capa_6">
</g>

<g
   id="Capa_1">
	<text
   class="st11 st12"
   id="text2924"
   x="45.912575"
   y="194.8588"><tspan
     style="font-style:normal;font-variant:normal;font-weight:normal;font-stretch:normal;font-family:Neonderthaw;-inkscape-font-specification:Neonderthaw"
     id="tspan3066">get</tspan></text>
	<text
   class="st13 st11 st14"
   id="text2926"
   x="297.46243"
   y="184.52463"><tspan
     style="font-style:normal;font-variant:normal;font-weight:normal;font-stretch:normal;font-family:Neonderthaw;-inkscape-font-specification:Neonderthaw"
     id="tspan3068">_.</tspan></text>
	<text
   id="text2934"
   style="font-style:normal;font-variant:normal;font-weight:normal;font-stretch:normal;font-family:TwCenMT;-inkscape-font-specification:TwCenMT"
   x="333.88446"
   y="102.98572"><tspan
     x="333.88446"
     y="102.98572"
     class="st15 st16 st17"
     id="tspan2928"
     style="font-style:italic;font-variant:normal;font-weight:normal;font-stretch:normal;font-family:TwCenMT;-inkscape-font-specification:'TwCenMT Italic'">M</tspan><tspan
     x="420.98447"
     y="102.98572"
     class="st18 st16 st17"
     id="tspan2930"
     style="font-style:normal;font-variant:normal;font-weight:normal;font-stretch:normal;font-family:TwCenMT;-inkscape-font-specification:TwCenMT"><tspan
       style="font-style:italic;font-variant:normal;font-weight:normal;font-stretch:normal;font-family:TwCenMT;-inkscape-font-specification:'TwCenMT Italic'"
       id="tspan3070">N</tspan><tspan
       style="font-style:italic;font-variant:normal;font-weight:normal;font-stretch:normal;font-family:TwCenMT;-inkscape-font-specification:'TwCenMT Italic';fill:#000000"
       id="tspan3072">V</tspan></tspan></text>
	<rect
   x="311.64667"
   y="90.995178"
   class="st6"
   width="4.9000001"
   height="31.1"
   id="rect2936" />
	<rect
   x="311.64667"
   y="116.89518"
   class="st6"
   width="266.20001"
   height="5.1999998"
   id="rect2938" />
	<rect
   x="573.34674"
   y="90.995178"
   class="st6"
   width="4.9000001"
   height="31.1"
   id="rect2940" />
<g
   id="g5691"
   transform="matrix(1.1148787,0.38680446,-0.38364053,1.1057594,329.62884,121.91504)"><path
     fill="#77b255"
     d="M 3.019,26.246 6.451,29.678 5.528,30.6 2.096,27.169 Z"
     id="path5631" /><path
     fill="#ffd983"
     d="M 6.362,29.587 9.793,33.019 8.87,33.942 5.44,30.51 Z"
     id="path5633" /><path
     fill="#ffac33"
     d="M 6.273,24.237 9.705,27.669 8.782,28.592 5.35,25.16 Z"
     id="path5635" /><path
     fill="#ea596e"
     d="m 8.998,26.962 3.432,3.432 -0.923,0.923 -3.431,-3.432 z m 3.909,-9.359 3.431,3.432 -0.923,0.923 -3.431,-3.432 z"
     id="path5637" /><path
     fill="#ffac33"
     d="m 15.631,20.329 3.432,3.431 -0.923,0.923 -3.432,-3.431 z"
     id="path5639" /><path
     fill="#77b255"
     d="M 14.97,14.377 18.402,17.809 17.48,18.732 14.048,15.3 Z"
     id="path5641" /><path
     fill="#ffd983"
     d="m 18.277,17.683 3.432,3.432 -0.923,0.923 -3.432,-3.432 z"
     id="path5643" /><path
     fill="#ffac33"
     d="m 17.616,11.731 3.432,3.432 -0.923,0.922 -3.432,-3.431 z"
     id="path5645" /><path
     fill="#ea596e"
     d="m 20.923,15.038 3.432,3.431 -0.923,0.923 -3.431,-3.432 z M 24.387,4.96 27.819,8.392 26.896,9.314 23.464,5.883 Z"
     id="path5647" /><path
     fill="#ffac33"
     d="m 27.694,8.267 3.432,3.431 -0.923,0.923 -3.432,-3.432 z"
     id="path5649" /><path
     fill="#77b255"
     d="M 27.013,2.252 30.445,5.684 29.522,6.607 26.09,3.175 Z"
     id="path5651" /><path
     fill="#ffd983"
     d="M 30.36,5.6 33.792,9.031 32.869,9.954 29.437,6.523 Z"
     id="path5653" /><path
     fill="#9266cc"
     d="m 24.922,0.812 c -2.52,2.52 -2.601,6.145 -2.396,9.806 0.501,0.028 1.002,0.061 1.502,0.094 0.39,0.026 0.775,0.051 1.159,0.074 C 24.989,7.5 24.988,4.487 26.793,2.682 27.52,1.979 27.748,1.029 27.24,0.516 26.705,-0.024 25.698,0.019 24.922,0.812 Z"
     id="path5655" /><path
     fill="#3b88c3"
     d="m 13.146,25.65 -0.153,-2.66 c -0.026,-0.445 -0.058,-0.899 -0.074,-1.332 -0.296,-0.296 -2.466,-0.349 -2.653,-0.162 0.013,0.44 0.047,0.884 0.071,1.327 0.028,0.502 0.126,2.275 0.149,2.66 0.054,0.91 0.096,1.806 0.086,2.656 0.259,0.259 2.371,0.437 2.645,0.162 A 36.931,36.931 0 0 0 13.146,25.65 Z"
     id="path5657" /><path
     fill="#55acee"
     d="m 13.22,28.3 -2.649,-0.162 c -0.026,2.209 -0.384,4.145 -1.687,5.448 a 1.3226433,1.3226433 0 1 0 1.87,1.871 c 2.423,-2.422 2.467,-7.174 2.466,-7.157 z"
     id="path5659" /><path
     fill="#9266cc"
     d="m 25.354,13.447 c -0.501,-0.028 -1.003,-0.061 -1.503,-0.094 -0.389,-0.026 -0.775,-0.051 -1.158,-0.074 0.198,3.285 0.199,6.299 -1.607,8.104 -1.804,1.804 -4.813,1.805 -8.094,1.607 -0.386,-0.023 -2.159,-0.14 -2.656,-0.168 -3.667,-0.206 -7.297,-0.126 -9.82,2.397 a 1.3226433,1.3226433 0 0 0 1.871,1.87 c 1.805,-1.804 4.815,-1.806 8.098,-1.608 0.385,0.023 2.161,0.14 2.66,0.168 3.662,0.205 7.289,0.125 9.811,-2.396 2.521,-2.52 2.603,-6.145 2.398,-9.806 z"
     id="path5661" /><path
     fill="#744eaa"
     d="M 25.354,13.447 C 25.326,12.946 25.209,11.17 25.186,10.787 A 51.95,51.95 0 0 1 25.122,9.455 c -0.336,-0.021 -2.1,-0.133 -2.653,-0.163 0.013,0.44 0.032,0.883 0.056,1.326 0.028,0.501 0.145,2.277 0.168,2.661 0.055,0.914 0.091,1.804 0.081,2.656 0.333,0.021 2.094,0.132 2.645,0.162 a 36.316,36.316 0 0 0 -0.065,-2.65 z"
     id="path5663" /><path
     fill="#55acee"
     d="M 35.581,8.827 C 35.161,8.391 34.196,8.226 33.29,9.18 c -1.805,1.805 -4.817,1.806 -8.104,1.607 -0.384,-0.023 -2.16,-0.141 -2.661,-0.169 -3.66,-0.205 -7.286,-0.123 -9.806,2.397 -2.215,2.215 -2.545,5.284 -2.453,8.48 0.553,0.03 2.319,0.142 2.653,0.162 -0.098,-2.755 0.113,-5.214 1.671,-6.772 1.805,-1.805 4.818,-1.805 8.104,-1.607 0.383,0.023 2.16,0.14 2.661,0.168 3.661,0.205 7.286,0.124 9.806,-2.396 0.886,-0.869 0.84,-1.787 0.42,-2.223 z"
     id="path5665" /></g><g
   style="fill:#e7216a;fill-opacity:1"
   id="g7162"
   transform="matrix(0.17973416,-0.0227006,0.0227006,0.17973416,315.59922,156.6008)"><path
     d="m 189.788,121.935 c 0.979,-1.54 1.826,-3.122 2.508,-4.746 l 30.203,-5.299 31.501,15.75 -31.501,-31.501 -28.472,5.695 c -0.274,-1.494 -0.678,-2.963 -1.198,-4.405 l 23.765,-9.164 18.511,-24.954 h -0.021 C 242.921,52.703 235.38,32.388 217.741,17.222 206.381,7.447 193.505,2.141 183.317,2.112 l 23.429,46.906 -39.819,-20.17 c 2.943,8.604 9.401,17.926 18.615,25.84 7.401,6.366 15.434,10.835 22.954,13.19 l -5.683,12.513 -15.617,7.321 c -7.561,-9.231 -20.471,-16.465 -36.19,-20.089 0.996,-1.225 1.594,-2.786 1.594,-4.487 0,-3.933 -3.189,-7.122 -7.122,-7.122 -3.933,0 -7.122,3.189 -7.122,7.122 0,0.876 0.166,1.71 0.455,2.485 -3.518,-0.36 -7.125,-0.555 -10.806,-0.555 -3.681,0 -7.288,0.195 -10.806,0.555 0.289,-0.775 0.455,-1.61 0.455,-2.485 0,-3.933 -3.189,-7.122 -7.122,-7.122 -3.933,0 -7.122,3.189 -7.122,7.122 0,1.702 0.598,3.262 1.594,4.487 -15.72,3.624 -28.63,10.859 -36.192,20.091 L 53.191,80.392 47.51,67.885 C 55.028,65.531 63.058,61.066 70.455,54.706 79.669,46.791 86.127,37.459 89.08,28.846 L 49.251,49.016 72.67,2.119 C 62.471,2.159 49.615,7.455 38.245,17.24 20.606,32.404 13.068,52.732 20.915,63.335 l 18.492,24.929 23.769,9.166 c -0.521,1.442 -0.924,2.91 -1.198,4.405 L 33.501,96.14 2,127.64 l 31.501,-15.75 30.209,5.3 c 0.682,1.624 1.529,3.205 2.507,4.745 l -32.716,5.706 -15.75,25.594 26.616,-16.913 31.468,-2.725 4.25,4.809 -13.114,3.016 -17.72,17.718 19.651,15.72 c 0.002,0.003 0.005,0.007 0.008,0.01 0,-0.001 0.001,-0.002 0.001,-0.003 l 0.028,0.023 -0.013,-0.053 c 0.945,-1.698 1.49,-3.649 1.49,-5.73 0,-4.158 -2.153,-7.807 -5.4,-9.912 l -0.014,-0.055 8.86,-7.875 H 91.45 l 2.255,2.552 c 1.622,1.836 3.954,2.887 6.405,2.887 h 55.445 c 2.45,0 4.782,-1.051 6.404,-2.887 l 2.255,-2.552 h 17.927 l 8.86,7.875 -0.014,0.055 c -3.247,2.105 -5.4,5.754 -5.4,9.912 0,2.081 0.545,4.032 1.49,5.73 l -0.013,0.053 0.028,-0.023 c 10e-4,0.001 10e-4,0.002 10e-4,0.003 0.003,-0.003 0.005,-0.007 0.008,-0.01 l 19.65,-15.72 -17.719,-17.719 -13.395,-3.081 4.217,-4.771 31.782,2.752 26.616,16.913 -15.75,-25.594 z"
     id="path7154"
     style="fill:#e7216a;fill-opacity:1" /></g></g>
</svg>
