<?xml version="1.0" encoding="utf-8"?>
<!-- Generator: Adobe Illustrator 25.2.1, SVG Export Plug-In . SVG Version: 6.00 Build 0)  -->
<svg version="1.1" xmlns="http://www.w3.org/2000/svg" xmlns:xlink="http://www.w3.org/1999/xlink" x="0px" y="0px"
	 viewBox="0 0 841.9 595.3" style="enable-background:new 0 0 841.9 595.3;" xml:space="preserve">
<style type="text/css">
	.st0{fill:#F6E81D;}
	.st1{fill:#3460AA;}
	.st2{fill:#9FA31D;}
	.st3{fill:#F3E600;}
	.st4{fill:#2A5DA9;}
	.st5{fill:#E52421;}
	.st6{fill:#010202;}
	.st7{fill:#EF781A;}
	.st8{fill:#66B32E;}
	.st9{opacity:0.46;}
	.st10{fill:#FFFFFF;}
	.st11{font-family:'Neonderthaw-Regular';}
	.st12{font-size:221px;}
	.st13{fill:#E7216A;}
	.st14{font-size:106px;}
	.st15{fill:#149389;}
	.st16{font-family:'TwCenMT-Italic';}
	.st17{font-size:113px;}
	.st18{fill:#6F398D;}
</style>
<g id="Capa_5">
	<g>
		<g>
			<path class="st0" d="M480,325.7c-0.6-0.8-1.1-1.6-1.5-2.5c-0.1-0.2-0.5-0.3-0.7-0.2c-0.2,0.2-0.3,0.4-0.2,0.7
				c0.4,0.9,0.9,1.7,1.5,2.5c0.2,0.2,0.4,0.3,0.7,0.2C480,326.2,480.2,325.9,480,325.7L480,325.7z"/>
		</g>
	</g>
	<g>
		<g>
			<path class="st0" d="M483.2,325.2c-0.5-1-0.9-2.2-1.1-3.3c-0.1-0.3-0.4-0.4-0.6-0.3c-0.3,0.1-0.4,0.4-0.3,0.6
				c0.3,1.2,0.7,2.4,1.2,3.5c0.1,0.2,0.5,0.3,0.7,0.2C483.3,325.7,483.3,325.4,483.2,325.2L483.2,325.2z"/>
		</g>
	</g>
	<g>
		<g>
			<path class="st0" d="M486.8,321.3c-0.5-0.9-0.9-1.9-1.4-2.8c-0.1-0.2-0.5-0.3-0.7-0.2c-0.2,0.2-0.3,0.4-0.2,0.7
				c0.5,0.9,0.9,1.9,1.4,2.8c0.1,0.2,0.5,0.3,0.7,0.2C486.9,321.9,486.9,321.6,486.8,321.3L486.8,321.3z"/>
		</g>
	</g>
	<g>
		<g>
			<path class="st0" d="M460.5,326.2c0.3,0.7,0.6,1.5,1,2.2c0.1,0.2,0.5,0.3,0.7,0.2c0.2-0.2,0.3-0.4,0.2-0.7
				c-0.2-0.3-0.3-0.7-0.5-1c-0.1-0.2-0.2-0.3-0.2-0.5c0-0.1-0.1-0.2-0.1-0.3c0,0,0-0.1,0-0.1c0-0.1,0,0,0,0c0,0,0,0,0-0.1
				c-0.1-0.1-0.1-0.2-0.2-0.3c-0.1-0.1-0.3-0.1-0.4-0.1C460.6,325.7,460.4,326,460.5,326.2L460.5,326.2z"/>
		</g>
	</g>
	<g>
		<g>
			<path class="st0" d="M463.3,324.9c0.2,0.7,0.5,1.4,0.9,2.1c0.1,0.2,0.5,0.3,0.7,0.2c0.2-0.1,0.3-0.4,0.2-0.7
				c-0.2-0.3-0.3-0.6-0.5-0.9c0,0-0.1-0.2,0,0c0,0,0-0.1,0-0.1c0-0.1-0.1-0.2-0.1-0.3c-0.1-0.2-0.1-0.3-0.2-0.5
				c-0.1-0.2-0.4-0.4-0.6-0.3C463.4,324.4,463.2,324.6,463.3,324.9L463.3,324.9z"/>
		</g>
	</g>
	<g>
		<g>
			<path class="st1" d="M482.5,315.1c0.4,0.5,0.7,1.1,0.9,1.7c0,0.1,0.2,0.2,0.3,0.2c0.1,0,0.3,0,0.4-0.1c0.1-0.1,0.2-0.2,0.2-0.3
				c0-0.1,0-0.3-0.1-0.4c-0.3-0.6-0.6-1.1-0.9-1.7c-0.1-0.1-0.2-0.2-0.3-0.2c-0.1,0-0.3,0-0.4,0.1
				C482.5,314.6,482.3,314.9,482.5,315.1L482.5,315.1z"/>
		</g>
	</g>
	<g>
		<g>
			<path class="st1" d="M478.6,315.5c0.3,0.6,0.5,1.3,0.8,2c0.3,0.7,0.5,1.4,0.8,2.1c0.1,0.3,0.3,0.4,0.6,0.3
				c0.2-0.1,0.4-0.4,0.3-0.6c-0.3-0.7-0.6-1.4-0.8-2.1c-0.3-0.7-0.5-1.5-0.9-2.1c-0.1-0.2-0.5-0.3-0.7-0.2
				C478.5,315,478.5,315.3,478.6,315.5L478.6,315.5z"/>
		</g>
	</g>
	<g>
		<g>
			<path class="st1" d="M473.7,318.4c0.6,1.4,1.3,2.7,2,4c0.1,0.2,0.5,0.3,0.7,0.2c0.2-0.1,0.3-0.4,0.2-0.7c-0.7-1.3-1.4-2.6-2-4
				c-0.1-0.2-0.5-0.3-0.7-0.2C473.6,317.9,473.6,318.1,473.7,318.4L473.7,318.4z"/>
		</g>
	</g>
	<g>
		<g>
			<path class="st1" d="M465.2,328.5c0.2,0.5,0.4,0.9,0.7,1.3c0.2,0.4,0.5,0.8,0.7,1.2c0.1,0.2,0.5,0.3,0.7,0.2
				c0.2-0.1,0.3-0.4,0.2-0.7c-0.2-0.4-0.4-0.8-0.7-1.2c-0.1-0.2-0.2-0.4-0.3-0.6c-0.1-0.1-0.1-0.2-0.2-0.3c0,0,0-0.1-0.1-0.1
				c0-0.1,0-0.1,0,0c0,0,0-0.1,0-0.1c-0.1-0.2-0.3-0.4-0.6-0.3C465.3,328,465.1,328.3,465.2,328.5L465.2,328.5z"/>
		</g>
	</g>
	<g>
		<g>
			<path class="st1" d="M463.7,330.7c0.2,0.3,0.3,0.6,0.5,0.9c0.2,0.3,0.4,0.5,0.6,0.8c0.1,0.1,0.2,0.2,0.3,0.3
				c0,0.1,0.1,0.1,0.1,0.2c0,0,0.1,0.1,0,0c0,0,0,0.1,0.1,0.1c0.1,0.1,0.2,0.2,0.2,0.4c0,0.1,0.1,0.1,0.1,0.2c0,0,0,0.1,0.1,0.1
				c0,0,0,0.1,0,0c0.1,0.2,0.3,0.4,0.6,0.3c0.2-0.1,0.5-0.4,0.3-0.6c-0.3-0.6-0.7-1.2-1.1-1.7c-0.2-0.3-0.3-0.4-0.5-0.7
				c-0.2-0.3-0.4-0.7-0.5-1c-0.1-0.2-0.5-0.3-0.7-0.2C463.6,330.2,463.6,330.5,463.7,330.7L463.7,330.7z"/>
		</g>
	</g>
	<g>
		<g>
			<path class="st1" d="M495,311.1c0.3,0.9,0.7,1.8,1.1,2.6c0.1,0.2,0.5,0.3,0.7,0.2c0.2-0.2,0.3-0.4,0.2-0.7c0-0.1-0.1-0.2-0.1-0.3
				c0-0.1,0-0.1-0.1-0.2c0,0-0.1-0.2,0-0.1c-0.1-0.2-0.2-0.4-0.2-0.6c-0.2-0.4-0.3-0.8-0.5-1.2c-0.1-0.2-0.3-0.4-0.6-0.3
				C495.1,310.6,494.9,310.8,495,311.1L495,311.1z"/>
		</g>
	</g>
	<g>
		<g>
			<path class="st1" d="M497.8,309.4c0.7,1.7,1.5,3.4,2.2,5c0.1,0.2,0.5,0.3,0.7,0.2c0.3-0.1,0.3-0.4,0.2-0.7
				c-0.7-1.6-1.5-3.2-2.1-4.8c-0.1-0.2-0.3-0.4-0.6-0.3C498,308.8,497.7,309.1,497.8,309.4L497.8,309.4z"/>
		</g>
	</g>
	<g>
		<g>
			<path class="st1" d="M501.9,309.9c0.4,1.3,0.7,2.5,1.1,3.8c0.2,0.6,1.1,0.4,1-0.3c-0.4-1.3-0.7-2.5-1.1-3.8
				C502.7,309,501.7,309.3,501.9,309.9L501.9,309.9z"/>
		</g>
	</g>
	<g>
		<g>
			<path class="st1" d="M505.4,309.8c0.3,0.5,0.6,1,0.9,1.4c0.1,0.2,0.5,0.3,0.7,0.2c0.2-0.1,0.3-0.4,0.2-0.7
				c-0.3-0.5-0.6-1-0.9-1.4c-0.1-0.2-0.5-0.3-0.7-0.2C505.4,309.3,505.3,309.6,505.4,309.8L505.4,309.8z"/>
		</g>
	</g>
	<g>
		<g>
			<path class="st2" d="M514,299.1c0.6,0,0.6-1,0-1C513.4,298.1,513.4,299.1,514,299.1L514,299.1z"/>
		</g>
	</g>
	<g>
		<g>
			<path class="st3" d="M500.5,306.7c0.2,0.7,0.5,1.3,0.8,1.9c0.1,0.2,0.5,0.3,0.7,0.2c0.2-0.2,0.3-0.4,0.2-0.7
				c-0.1-0.1-0.1-0.3-0.2-0.4c0-0.1-0.1-0.1-0.1-0.2c0,0,0-0.1-0.1-0.1c0,0,0,0,0-0.1c0,0.1,0,0.1,0,0c-0.1-0.3-0.2-0.6-0.3-0.9
				c-0.1-0.2-0.3-0.4-0.6-0.3C500.6,306.1,500.4,306.4,500.5,306.7L500.5,306.7z"/>
		</g>
	</g>
	<g>
		<g>
			<path class="st3" d="M504.1,306.9C504.1,306.9,504.1,306.9,504.1,306.9C504.1,306.9,504,306.9,504.1,306.9c0,0.1,0.1,0.1,0.1,0.1
				c0,0.1,0.1,0.1,0.1,0.2c0.1,0.2,0.1,0.3,0.2,0.5c0.2,0.3,0.3,0.7,0.5,1c0,0.1,0.2,0.2,0.3,0.2c0.1,0,0.3,0,0.4-0.1
				c0.1-0.1,0.2-0.2,0.2-0.3c0-0.1,0-0.3-0.1-0.4c-0.2-0.4-0.3-0.7-0.5-1.1c-0.2-0.3-0.3-0.7-0.6-1c-0.2-0.2-0.5-0.2-0.7,0
				C503.9,306.4,503.9,306.7,504.1,306.9L504.1,306.9z"/>
		</g>
	</g>
	<g>
		<g>
			<path class="st3" d="M500.5,306.5c0.2,0.2,0.3,0.5,0.4,0.7c0.1,0.1,0.1,0.2,0.2,0.4c0,0.1,0.1,0.1,0.1,0.2c0-0.1,0,0.1,0,0.1
				c0.2,0.5,0.2,1.1,0.4,1.6c0.1,0.2,0.5,0.3,0.7,0.2c0.2-0.2,0.3-0.4,0.2-0.7c0-0.1,0-0.1,0,0c0,0,0-0.1,0-0.1c0-0.1,0-0.1-0.1-0.2
				c0-0.1-0.1-0.3-0.1-0.4c-0.1-0.3-0.1-0.5-0.2-0.8c-0.2-0.5-0.5-1-0.8-1.5c-0.1-0.2-0.4-0.3-0.7-0.2
				C500.5,305.9,500.4,306.3,500.5,306.5L500.5,306.5z"/>
		</g>
	</g>
	<g>
		<g>
			<path class="st3" d="M496.8,306.4c0.1,0.5,0.3,1,0.5,1.5c0,0.1,0.1,0.1,0.1,0.2c0-0.1,0,0.1,0,0.1c0,0.1,0.1,0.2,0.1,0.4
				c0.1,0.2,0.2,0.5,0.2,0.8c0,0.3,0.4,0.4,0.6,0.3c0.3-0.1,0.4-0.3,0.3-0.6c-0.1-0.5-0.3-1-0.5-1.6c0-0.1-0.1-0.1-0.1-0.2
				c0,0,0-0.1,0-0.1c0,0,0,0,0,0c0-0.1-0.1-0.2-0.1-0.4c-0.1-0.2-0.2-0.5-0.2-0.8c0-0.3-0.4-0.4-0.6-0.3
				C496.9,305.9,496.8,306.1,496.8,306.4L496.8,306.4z"/>
		</g>
	</g>
	<g>
		<g>
			<path class="st3" d="M493.9,308.4c0.3,1,0.6,1.9,1.1,2.8c0.1,0.2,0.5,0.3,0.7,0.2c0.2-0.2,0.3-0.4,0.2-0.7
				c-0.1-0.2-0.2-0.4-0.3-0.6c0,0,0-0.1,0-0.1c0,0,0,0,0,0c0,0,0-0.1-0.1-0.1c0-0.1-0.1-0.2-0.1-0.3c-0.2-0.4-0.3-0.9-0.4-1.4
				c-0.1-0.3-0.4-0.4-0.6-0.3C494,307.9,493.8,308.1,493.9,308.4L493.9,308.4z"/>
		</g>
	</g>
	<g>
		<g>
			<path class="st3" d="M503.9,306.2c0.2,0.6,0.4,1.1,0.6,1.7c0.1,0.2,0.2,0.5,0.4,0.7c0.1,0.1,0.1,0.2,0.2,0.3
				c0,0.1,0.1,0.1,0.1,0.2c0,0,0,0.1,0,0.1c0,0,0,0,0,0c0.1,0.2,0.3,0.4,0.6,0.3c0.2-0.1,0.4-0.4,0.3-0.6c-0.2-0.5-0.6-1-0.8-1.5
				c-0.1-0.2-0.2-0.4-0.3-0.7c-0.1-0.3-0.2-0.6-0.3-0.8c-0.1-0.2-0.3-0.4-0.6-0.3C504,305.7,503.8,306,503.9,306.2L503.9,306.2z"/>
		</g>
	</g>
	<g>
		<g>
			<path class="st3" d="M495.9,310.5c-0.1-0.1-0.1-0.2-0.1-0.3c0,0,0,0,0-0.1c0,0,0-0.1,0,0c0,0.1,0,0,0,0c0,0,0,0,0-0.1
				c-0.1-0.2-0.1-0.4-0.2-0.6c-0.1-0.4-0.2-0.8-0.5-1.2c-0.1-0.2-0.5-0.3-0.7-0.2c-0.2,0.1-0.3,0.4-0.2,0.7c0,0.1,0.1,0.2,0.1,0.3
				c0,0.1,0-0.1,0,0c0,0,0,0,0,0.1c0,0,0,0.1,0.1,0.1c0.1,0.2,0.1,0.4,0.2,0.6c0.1,0.4,0.3,0.8,0.5,1.2c0.1,0.2,0.5,0.3,0.7,0.2
				C496,311,496.1,310.7,495.9,310.5L495.9,310.5z"/>
		</g>
	</g>
	<g>
		<g>
			<path class="st3" d="M495.4,311.2c0.6,0,0.6-1,0-1C494.8,310.2,494.8,311.2,495.4,311.2L495.4,311.2z"/>
		</g>
	</g>
	<g>
		<g>
			<path class="st3" d="M495.5,311.3c0.6,0,0.6-1,0-1C494.8,310.3,494.8,311.3,495.5,311.3L495.5,311.3z"/>
		</g>
	</g>
	<g>
		<g>
			<path class="st3" d="M495.5,311.3c0.6,0,0.6-1,0-1C494.9,310.3,494.9,311.3,495.5,311.3L495.5,311.3z"/>
		</g>
	</g>
	<g>
		<g>
			<path class="st3" d="M477,323.8c0.2,0.6,0.5,1.2,0.9,1.7c0.1,0.1,0.2,0.2,0.3,0.2c0.1,0,0.3,0,0.4-0.1c0.2-0.1,0.3-0.5,0.2-0.7
				c-0.2-0.4-0.5-0.7-0.6-1.1c0,0,0,0.1,0.1,0.1c-0.1-0.2-0.1-0.3-0.2-0.5c-0.1-0.3-0.4-0.4-0.6-0.3
				C477.1,323.3,477,323.5,477,323.8L477,323.8z"/>
		</g>
	</g>
	<g>
		<g>
			<path class="st3" d="M477.7,324c0.6,0,0.6-1,0-1C477.1,323,477.1,324,477.7,324L477.7,324z"/>
		</g>
	</g>
	<g>
		<g>
			<path class="st3" d="M477.8,323.9c0.6,0,0.6-1,0-1C477.1,322.9,477.1,323.9,477.8,323.9L477.8,323.9z"/>
		</g>
	</g>
	<g>
		<g>
			<path class="st3" d="M477.6,324.1c0.6,0,0.6-1,0-1C477,323.1,477,324.1,477.6,324.1L477.6,324.1z"/>
		</g>
	</g>
	<g>
		<g>
			<path class="st3" d="M480.5,321c0.4,1.5,0.9,2.9,1.4,4.3c0.1,0.3,0.3,0.4,0.6,0.3c0.2-0.1,0.4-0.4,0.3-0.6
				c-0.5-1.4-1-2.9-1.4-4.3C481.3,320.1,480.3,320.4,480.5,321L480.5,321z"/>
		</g>
	</g>
	<g>
		<g>
			<path class="st3" d="M480.8,321.1c0.2,0.7,0.6,1.3,0.8,2c0.2,0.7,0.4,1.4,0.7,2.1c0.1,0.2,0.5,0.3,0.7,0.2
				c0.3-0.1,0.3-0.4,0.2-0.7c-0.3-0.6-0.4-1.3-0.6-1.9c-0.2-0.6-0.6-1.2-0.8-1.9c-0.1-0.3-0.3-0.4-0.6-0.3
				C480.8,320.5,480.7,320.8,480.8,321.1L480.8,321.1z"/>
		</g>
	</g>
	<g>
		<g>
			<path class="st3" d="M483.9,319.2c0.5,0.9,0.9,1.8,1.4,2.7c0.1,0.2,0.5,0.3,0.7,0.2c0.2-0.2,0.3-0.4,0.2-0.7
				c-0.5-0.9-0.9-1.8-1.4-2.7c-0.1-0.2-0.5-0.3-0.7-0.2C483.8,318.6,483.8,318.9,483.9,319.2L483.9,319.2z"/>
		</g>
	</g>
	<g>
		<g>
			<path class="st3" d="M484.6,319c0.6,0,0.6-1,0-1C483.9,318,483.9,319,484.6,319L484.6,319z"/>
		</g>
	</g>
	<g>
		<g>
			<path class="st3" d="M484.7,319.2c0.6,0,0.6-1,0-1C484,318.2,484,319.2,484.7,319.2L484.7,319.2z"/>
		</g>
	</g>
	<g>
		<g>
			<path class="st3" d="M484.8,319.1c0.6,0,0.6-1,0-1C484.2,318.1,484.2,319.1,484.8,319.1L484.8,319.1z"/>
		</g>
	</g>
	<g>
		<g>
			<path class="st3" d="M484.8,319.1c0.6,0,0.6-1,0-1C484.2,318.1,484.2,319.1,484.8,319.1L484.8,319.1z"/>
		</g>
	</g>
	<g>
		<g>
			<path class="st3" d="M484.8,319.1c0.6,0,0.6-1,0-1C484.2,318.1,484.2,319.1,484.8,319.1L484.8,319.1z"/>
		</g>
	</g>
	<g>
		<g>
			<path class="st3" d="M484.4,319.2c0.6,0,0.6-1,0-1C483.7,318.2,483.7,319.2,484.4,319.2L484.4,319.2z"/>
		</g>
	</g>
	<g>
		<g>
			<path class="st3" d="M463.2,326.1c0.1,0.5,0.4,0.9,0.7,1.3c0.1,0.1,0.2,0.1,0.4,0.1c0.1,0,0.3-0.1,0.4-0.1
				c0.1-0.1,0.2-0.2,0.1-0.4c0,0,0-0.1,0-0.1c0-0.1-0.1-0.2-0.1-0.2c0-0.1-0.1-0.1-0.1-0.2c0,0,0.1,0.1,0.1,0.1
				c-0.1-0.2-0.3-0.4-0.4-0.6c0,0,0,0.1,0.1,0.1c0-0.1-0.1-0.2-0.1-0.3c0-0.1-0.1-0.2-0.2-0.3c-0.1-0.1-0.3-0.1-0.4-0.1
				c-0.1,0-0.2,0.1-0.3,0.2C463.2,325.8,463.2,325.9,463.2,326.1L463.2,326.1z"/>
		</g>
	</g>
	<g>
		<g>
			<path class="st3" d="M464.5,327.5c0.6,0,0.6-1,0-1C463.9,326.5,463.9,327.5,464.5,327.5L464.5,327.5z"/>
		</g>
	</g>
	<g>
		<g>
			<path class="st3" d="M464.4,327.5c0.6,0,0.6-1,0-1C463.8,326.5,463.8,327.5,464.4,327.5L464.4,327.5z"/>
		</g>
	</g>
	<g>
		<g>
			<path class="st3" d="M461.5,327c0,0.2,0.1,0.4,0.1,0.6c0.1,0.2,0.1,0.3,0.2,0.5c0,0.1,0.1,0.2,0.2,0.3c0.1,0.1,0.3,0.1,0.4,0.1
				c0.1,0,0.2-0.1,0.3-0.2c0.1-0.1,0.1-0.3,0.1-0.4c-0.1-0.2-0.1-0.3-0.2-0.5c0-0.1-0.1-0.3-0.1-0.5c0,0,0,0.1,0,0.1c0,0,0,0,0-0.1
				c0-0.1-0.1-0.3-0.1-0.4c-0.1-0.1-0.2-0.2-0.4-0.1c-0.1,0-0.3,0-0.4,0.1C461.6,326.8,461.5,326.9,461.5,327L461.5,327z"/>
		</g>
	</g>
	<g>
		<g>
			<path class="st3" d="M462.3,328.5c0.6,0,0.6-1,0-1C461.6,327.5,461.6,328.5,462.3,328.5L462.3,328.5z"/>
		</g>
	</g>
	<g>
		<g>
			<path class="st3" d="M462,328.8c0.6,0,0.6-1,0-1C461.4,327.8,461.4,328.8,462,328.8L462,328.8z"/>
		</g>
	</g>
	<g>
		<g>
			<path class="st4" d="M497.1,307c0.4,0,0.7-0.1,1-0.3c0.1-0.1,0.3-0.1,0.4-0.2c-0.1,0-0.2,0.1-0.3,0.1c0.3-0.1,0.6-0.2,1-0.3
				c0.2,0,0.3-0.1,0.4-0.2c0.1-0.1,0.2-0.2,0.3-0.4c0.1-0.1,0.1-0.3,0.1-0.5c0-0.2,0-0.3,0-0.5c-0.1-0.3-0.3-0.6-0.6-0.7
				c-0.1,0-0.2-0.1-0.3-0.1c-0.2-0.1-0.4-0.1-0.7,0c-0.3,0-0.5,0.1-0.7,0.2c-0.3,0.1-0.6,0.3-1,0.4c0.1,0,0.2-0.1,0.3-0.1
				c-0.1,0-0.2,0.1-0.3,0.1c0.1,0,0.2,0,0.3,0c0,0-0.1,0-0.1,0c-0.3,0-0.7,0.1-0.9,0.4c-0.1,0.1-0.2,0.2-0.3,0.4
				c-0.1,0.1-0.1,0.3-0.1,0.5c0,0.3,0.1,0.7,0.4,0.9C496.5,306.8,496.8,307,497.1,307L497.1,307z"/>
		</g>
	</g>
	<g>
		<g>
			<path class="st4" d="M512,307.7c-0.7,0.7-0.1,1.6,0.5,2.1c0.6,0.5,1.2,0.8,1.9,0.9c0.3,0.1,0.6-0.1,0.6-0.3
				c0.1-0.2-0.1-0.6-0.3-0.6c-0.1,0-0.3-0.1-0.4-0.1c-0.1,0-0.1,0-0.2-0.1c0,0-0.1,0-0.1,0c-0.1,0,0,0,0,0c-0.3-0.1-0.5-0.2-0.7-0.4
				c0,0-0.1,0-0.1-0.1c-0.1,0,0.1,0.1,0,0c-0.1,0-0.1-0.1-0.1-0.1c0,0-0.1-0.1-0.1-0.1c0,0,0-0.1-0.1-0.1c0,0,0,0.1,0,0
				c0-0.1-0.1-0.1-0.1-0.2c0,0,0-0.1,0,0c0,0,0-0.1,0-0.1c0-0.1,0,0.1,0,0c0,0,0,0,0,0c0,0.1,0,0.1,0,0c0-0.1,0-0.1,0,0
				c0-0.1-0.1,0.1,0,0c0.2-0.2,0.2-0.5,0-0.7C512.5,307.5,512.2,307.5,512,307.7L512,307.7z"/>
		</g>
	</g>
	<g>
		<g>
			<path class="st4" d="M512,308.5c0.1,0.9,0.6,1.8,1.5,2.1c0.2,0.1,0.5,0.1,0.7,0.2c0.3,0.1,0.6,0.1,0.8,0.1c0.6,0,1.1-0.2,1.6-0.5
				c0.2-0.1,0.3-0.5,0.2-0.7c-0.1-0.3-0.4-0.3-0.7-0.2c-0.3,0.1-0.7,0.3-1,0.3c-0.4,0-0.8-0.1-1.2-0.2c-0.5-0.2-0.9-0.7-0.9-1.2
				c0-0.3-0.2-0.5-0.5-0.5C512.3,308,512,308.2,512,308.5L512,308.5z"/>
		</g>
	</g>
	<g>
		<g>
			<path class="st4" d="M513.5,306.4c0.2-0.1,0.4-0.2,0.6-0.3c0.1,0,0.2-0.1,0.3-0.1c0.1,0,0,0,0,0c0,0,0.1,0,0.1,0c0,0,0.1,0,0,0
				c-0.1,0,0,0,0,0c0.1,0,0,0,0,0c0,0,0,0,0.1,0c0.1,0-0.1,0,0,0c0,0,0.1,0,0,0c-0.1-0.1,0,0,0,0c0,0-0.1-0.1,0,0c0,0,0.1,0.1,0,0
				c0-0.1,0,0,0,0c0.1,0.2,0.1,0.5,0.2,0.7c0.1,0.2,0.4,0.4,0.6,0.3c0.3-0.1,0.4-0.3,0.3-0.6c-0.1-0.3-0.2-0.6-0.3-0.8
				c-0.1-0.3-0.4-0.5-0.7-0.6c-0.2,0-0.4,0-0.5,0c-0.2,0-0.3,0.1-0.4,0.2c-0.3,0.1-0.5,0.2-0.8,0.4c-0.2,0.1-0.3,0.5-0.2,0.7
				C513,306.5,513.3,306.5,513.5,306.4L513.5,306.4z"/>
		</g>
	</g>
	<g>
		<g>
			<path class="st4" d="M511.6,307.6c0.1,0.2,0,0.5,0,0.7c0.1,0.3,0.3,0.4,0.4,0.7c0.1,0.2,0.1,0.5,0.3,0.7c0.1,0.2,0.4,0.4,0.6,0.6
				c0.5,0.3,1.1,0.4,1.6,0.6c0.6,0.1,1.2,0.3,1.8,0.1c0.6-0.2,0.4-1.1-0.3-1c-0.4,0.1-0.9,0-1.3-0.2c-0.4-0.1-0.9-0.2-1.3-0.4
				c-0.3-0.2-0.4-0.6-0.5-0.9c-0.1-0.1-0.2-0.3-0.2-0.4c0-0.1,0-0.2,0-0.3c0-0.1,0-0.3-0.1-0.4c-0.1-0.3-0.3-0.4-0.6-0.3
				C511.7,307.1,511.5,307.3,511.6,307.6L511.6,307.6z"/>
		</g>
	</g>
	<g>
		<g>
			<path class="st4" d="M511.6,308c0,0.4-0.1,0.8-0.1,1.1c0.1,0.4,0.4,0.6,0.7,0.8c0.6,0.3,1.3,0.6,2,0.7c1.2,0.2,3.4,0.1,3.5-1.5
				c0-0.6-1-0.6-1,0c0,0.4-0.6,0.5-0.9,0.5c-0.5,0.1-1,0.1-1.5,0c-0.5-0.1-1-0.2-1.4-0.4c-0.1-0.1-0.2-0.1-0.3-0.2c-0.1,0,0,0,0-0.1
				c0-0.3,0.1-0.6,0.1-0.9c0-0.3-0.3-0.5-0.5-0.5C511.8,307.5,511.6,307.7,511.6,308L511.6,308z"/>
		</g>
	</g>
</g>
<g id="Capa_4">
	<g>
		<g>
			<path class="st3" d="M467.6,334.5c0.7-2.5,1.5-5,2.4-7.5c0.8-2.2,1.5-4.4,2.7-6.4c2.3-3.7,6.3-5.6,10.6-5.8
				c2.5-0.1,5,0.3,7.5,0.5c2.4,0.3,4.8,0.5,7.2,0.5c2.2,0.1,4.3-0.2,6.4-1.1c1.8-0.9,3.4-2.2,4.7-3.8c3.4-3.9,5-9,6.1-14
				c0.3-1.6-2.1-2.2-2.4-0.7c-1,4.6-2.4,9.3-5.5,12.9c-1.3,1.5-3,3-4.9,3.7c-2.2,0.8-4.6,0.5-6.9,0.4c-4.8-0.3-9.7-1.5-14.5-0.7
				c-4,0.6-7.6,2.8-9.9,6.1c-1.4,2-2.3,4.4-3.1,6.8c-1,2.8-1.9,5.6-2.7,8.4C464.7,335.4,467.1,336,467.6,334.5L467.6,334.5z"/>
		</g>
	</g>
</g>
<g id="Capa_3">
	<g>
		<g>
			<path class="st4" d="M461.3,327.9c3-4.2,8.5-3,12.7-1.7c2.1,0.7,4.1,1.7,6.3,1.7c2.1-0.1,3.9-1.2,5.3-2.6
				c3.1-3.2,4.2-7.6,5.9-11.6c0.8-1.9,1.8-3.8,3.2-5.3c1.5-1.6,3.4-2.4,5.6-2.5c4.8-0.3,10.1,0.2,14,3.4c1.2,1,3-0.7,1.8-1.8
				c-3.6-2.9-8-4-12.6-4.2c-2.3-0.1-4.8-0.1-7,0.8c-1.9,0.8-3.4,2.2-4.7,3.9c-2.8,3.8-3.7,8.6-6,12.7c-1.1,2-2.8,4.4-5.3,4.7
				c-2.4,0.3-4.9-1.3-7.2-1.9c-2.7-0.7-5.5-1.3-8.3-0.8c-2.5,0.5-4.5,1.9-6,4C458.2,328,460.4,329.2,461.3,327.9L461.3,327.9z"/>
		</g>
	</g>
	<g>
		<g>
			<path class="st4" d="M514.6,308.5c0.3,0.1,0.6,0.1,0.8,0.2c-0.1,0-0.2-0.1-0.3-0.1c0.3,0.1,0.6,0.3,0.9,0.5
				c-0.1-0.1-0.2-0.1-0.3-0.2c0.3,0.2,0.5,0.4,0.7,0.7c-0.1-0.1-0.1-0.2-0.2-0.3c0,0.1,0.1,0.1,0.1,0.2c0-0.1-0.1-0.2-0.1-0.3
				c0,0,0,0,0,0c0-0.1,0-0.2,0-0.3c0,0,0,0,0,0c0-0.1,0-0.2,0-0.3c0,0,0,0,0,0.1c0-0.1,0.1-0.2,0.1-0.3c0,0.1-0.1,0.1-0.1,0.2
				c0.1-0.1,0.1-0.2,0.2-0.3c-0.1,0.1-0.1,0.1-0.2,0.2c0.1-0.1,0.2-0.1,0.3-0.2c-0.1,0.1-0.2,0.1-0.2,0.1c0.1,0,0.2-0.1,0.3-0.1
				c-0.1,0-0.2,0.1-0.3,0.1c0.1,0,0.2,0,0.3,0c-0.1,0-0.2,0-0.3,0c0.1,0,0.2,0,0.3,0c-0.1,0-0.2,0-0.3-0.1c0.1,0,0.2,0.1,0.3,0.1
				c-0.1-0.1-0.3-0.1-0.4-0.2c0.1,0.1,0.2,0.1,0.3,0.2c-0.3-0.2-0.6-0.5-0.9-0.8c-0.2-0.2-0.5-0.3-0.7-0.4c0.1,0.1,0.2,0.1,0.3,0.2
				c-0.1,0-0.1-0.1-0.1-0.1c0.1,0.1,0.1,0.2,0.2,0.3c0,0,0,0,0,0c0,0.1,0.1,0.2,0.1,0.3c0,0,0,0,0,0c0,0.1,0,0.2,0,0.3c0,0,0,0,0,0
				c-0.1,0.2-0.1,0.4-0.2,0.6c0,0,0,0,0,0c-0.1,0.1-0.3,0.3-0.4,0.4c0,0,0,0,0,0c-0.1,0-0.2,0.1-0.3,0.1c0.1,0,0.3-0.1,0.4-0.1
				c-0.5-0.5-1-1-1.5-1.5c-0.1,0.2-0.1,0.4-0.2,0.6c0-0.1,0.1-0.2,0.1-0.3c-0.1,0.2-0.2,0.3-0.2,0.5c-0.2,0.5-0.3,1,0,1.5
				c0.3,0.5,0.9,0.8,1.4,1c0.8,0.3,1.7,0.3,2.5,0c0.3-0.1,0.6-0.3,0.7-0.6c0.2-0.3,0.2-0.7,0.1-1c-0.2-0.6-0.9-1.1-1.5-0.9
				c-0.2,0.1-0.4,0.1-0.5,0.1c0.1,0,0.2,0,0.3,0c-0.2,0-0.5,0-0.7,0c0.1,0,0.2,0,0.3,0c-0.2,0-0.4-0.1-0.6-0.2
				c0.1,0,0.2,0.1,0.3,0.1c-0.2-0.1-0.3-0.2-0.5-0.3c0.1,0.1,0.2,0.1,0.3,0.2c0,0-0.1-0.1-0.1-0.1c0.1,0.1,0.1,0.2,0.2,0.3
				c0,0,0,0,0,0c0,0.1,0.1,0.2,0.1,0.3c0,0,0,0,0,0c0,0.1,0,0.2,0,0.3c0,0,0,0,0,0c0,0.1,0,0.2,0,0.3c0,0,0-0.1,0-0.1
				c0,0.1-0.1,0.2-0.1,0.3c0.2-0.4,0.4-0.9,0.6-1.4c0.1-0.4,0-0.9-0.3-1.2c-0.3-0.3-0.8-0.4-1.2-0.3c-0.4,0.1-0.8,0.2-1.1,0.6
				c-0.4,0.6-0.3,1.3,0.1,1.8c0.3,0.3,0.7,0.5,1.1,0.7c-0.1-0.1-0.2-0.1-0.3-0.2c0.2,0.1,0.4,0.3,0.5,0.5c0.3,0.3,0.6,0.5,0.9,0.6
				c0.7,0.3,1.5,0.2,2.1-0.2c0.4-0.3,0.7-0.6,0.9-1.1c0.1-0.4,0.1-0.8-0.1-1.1c-0.1-0.2-0.2-0.3-0.4-0.5c-0.3-0.4-0.8-0.8-1.2-1
				c-0.5-0.3-1.1-0.5-1.6-0.6c-0.3-0.1-0.7-0.1-1,0.1c-0.3,0.2-0.5,0.4-0.6,0.7c-0.1,0.3-0.1,0.7,0.1,1
				C514.1,308.2,514.3,308.4,514.6,308.5L514.6,308.5z"/>
		</g>
	</g>
	<g>
		<g>
			<path class="st4" d="M514,310c1.6,0,1.6-2.5,0-2.5C512.4,307.5,512.4,310,514,310L514,310z"/>
		</g>
	</g>
	<g>
		<g>
			<path class="st4" d="M518.1,309.8c1,0.3,2,0,2.8-0.6c-0.1-0.1-0.2-0.2-0.4-0.3c0,0.1-0.1,0.1-0.2,0.2c-0.1,0.1-0.1,0.2-0.1,0.3
				c0.1,0.3,0.5,0.3,0.7,0.3c0.3,0.1,0.4-0.4,0.1-0.5c-0.1,0-0.2,0-0.3-0.1c-0.1,0-0.2,0-0.2,0c0,0,0.1,0.1,0.1,0.1c0,0,0,0,0,0
				c0,0,0,0.1,0,0.1c0,0.1,0,0.1,0,0c0,0,0,0,0.1,0c0,0,0.1-0.1,0.1-0.1c0.1-0.1,0.1-0.2,0.1-0.3c0.1-0.2-0.2-0.4-0.4-0.3
				c-0.7,0.5-1.6,0.8-2.5,0.6C517.9,309.2,517.8,309.7,518.1,309.8L518.1,309.8z"/>
		</g>
	</g>
	<g>
		<g>
			<path class="st4" d="M517.9,309.8c0.3,0.3,0.8,0.3,1.3,0.2c0.5-0.1,1-0.2,1.4-0.4c0.1-0.1,0.2-0.2,0.1-0.3
				c-0.1-0.1-0.2-0.1-0.3-0.1c-0.4,0.2-0.8,0.3-1.2,0.3c-0.2,0-0.4,0-0.5,0c-0.1,0-0.3,0-0.4-0.1C518,309.2,517.7,309.6,517.9,309.8
				L517.9,309.8z"/>
		</g>
	</g>
	<g>
		<g>
			<path class="st4" d="M511.9,307.7c0.4,0.5,0.7,0.9,1.1,1.4c0.1,0.1,0.2,0.2,0.3,0.1c0.1-0.1,0.2-0.2,0.1-0.3
				c-0.4-0.5-0.7-0.9-1.1-1.4c-0.1-0.1-0.2-0.2-0.3-0.1C511.9,307.4,511.9,307.6,511.9,307.7L511.9,307.7z"/>
		</g>
	</g>
	<g>
		<g>
			<path class="st4" d="M511.9,307.5c0,0.2,0.2,0.4,0.3,0.6c0.1,0.2,0.2,0.4,0.3,0.6c0.2,0.4,0.4,0.8,0.5,1.2c0,0.1,0.2,0.2,0.3,0.2
				c0.1,0,0.2-0.2,0.2-0.3c-0.2-0.4-0.3-0.9-0.6-1.3c-0.1-0.2-0.2-0.4-0.3-0.6c-0.1-0.2-0.2-0.3-0.3-0.5c0-0.1-0.2-0.2-0.3-0.2
				C511.9,307.2,511.9,307.3,511.9,307.5L511.9,307.5z"/>
		</g>
	</g>
	<g>
		<g>
			<path class="st4" d="M511.7,307.7c0.1,0.4,0.4,0.8,0.6,1.1c0.2,0.4,0.4,0.8,0.7,1.1c0.1,0.2,0.2,0.3,0.4,0.4
				c0.2,0.1,0.4,0.2,0.6,0.2c0.4,0,0.9,0.1,1.3-0.1c0.1-0.1,0.2-0.2,0.1-0.3c-0.1-0.1-0.2-0.1-0.3-0.1c-0.1,0.1-0.3,0.1-0.5,0
				c-0.2,0-0.4,0-0.6,0c-0.3,0-0.5-0.4-0.7-0.6c-0.2-0.3-0.4-0.6-0.6-0.9c-0.2-0.3-0.4-0.6-0.5-1
				C512.1,307.3,511.6,307.4,511.7,307.7L511.7,307.7z"/>
		</g>
	</g>
	<g>
		<g>
			<path class="st4" d="M513.9,306.6c0.6,0,1.1,0.1,1.6,0.3c0.1,0.1,0.3,0,0.3-0.1c0.1-0.1,0-0.3-0.1-0.3c-0.6-0.3-1.2-0.4-1.9-0.4
				c-0.1,0-0.2,0.1-0.2,0.2C513.6,306.4,513.8,306.6,513.9,306.6L513.9,306.6z"/>
		</g>
	</g>
	<g>
		<g>
			<path class="st4" d="M513.2,306c0.8,0.2,1.7,0.4,2.4,0.9c0.1,0.1,0.3,0,0.3-0.1c0.1-0.1,0-0.3-0.1-0.3c-0.7-0.5-1.6-0.8-2.5-1
				C513,305.4,512.9,305.9,513.2,306L513.2,306z"/>
		</g>
	</g>
	<g>
		<g>
			<path class="st4" d="M513.6,306.4c0.1-0.1,0.3-0.1,0.5-0.2c0.1,0,0.3,0,0.4,0c0.3,0,0.6,0.1,0.7,0.3c0.2,0.2,0.6-0.1,0.4-0.4
				c-0.3-0.3-0.6-0.4-1-0.4c-0.2,0-0.4-0.1-0.6,0c-0.2,0-0.4,0.1-0.6,0.2c-0.1,0.1-0.2,0.2-0.1,0.3
				C513.4,306.5,513.5,306.5,513.6,306.4L513.6,306.4z"/>
		</g>
	</g>
	<g>
		<g>
			<path class="st4" d="M513.8,305.9c0.1-0.1,0.3-0.2,0.4-0.2c0.1-0.1,0.3-0.2,0.4-0.2c0,0-0.1,0-0.1,0c0.2,0,0.4,0.3,0.6,0.4
				c0.2,0.2,0.4,0.4,0.5,0.6c0.4,0.4,0.8,0.9,1.1,1.3c0.2,0.2,0.6-0.1,0.4-0.4c-0.5-0.6-1.1-1.3-1.7-1.9c-0.2-0.2-0.5-0.5-0.8-0.6
				c-0.2,0-0.4,0.1-0.6,0.2c-0.2,0.1-0.4,0.2-0.6,0.3C513.3,305.7,513.5,306.1,513.8,305.9L513.8,305.9z"/>
		</g>
	</g>
	<g>
		<g>
			<path class="st4" d="M514,306c0.3,0,0.5,0.1,0.8,0.2c0,0,0.1,0,0.1,0c0.1,0,0,0,0,0c0.1,0,0.1,0.1,0.2,0.1
				c0.1,0.1,0.2,0.1,0.3,0.2c0.1,0.1,0.3,0,0.3-0.1c0.1-0.1,0-0.3-0.1-0.3c-0.5-0.3-1-0.5-1.5-0.6c-0.1,0-0.3,0-0.3,0.2
				C513.8,305.8,513.9,305.9,514,306L514,306z"/>
		</g>
	</g>
	<g>
		<g>
			<path class="st4" d="M514.7,305.8c1.1,0.3,2.1,1,2.7,2c0.2,0.3,0.6,0,0.4-0.3c-0.7-1.1-1.7-1.9-3-2.2
				C514.5,305.2,514.4,305.7,514.7,305.8L514.7,305.8z"/>
		</g>
	</g>
	<g>
		<g>
			<path class="st4" d="M513.8,306.2c0.3-0.2,0.5-0.5,0.7-0.7c0.2-0.1,0.3-0.1,0.4,0c0.2,0.1,0.4,0.3,0.6,0.5
				c0.7,0.6,1.5,1.1,1.9,1.9c0.1,0.3,0.6,0,0.4-0.3c-0.5-0.9-1.4-1.5-2.2-2.2c-0.4-0.3-0.8-0.7-1.3-0.4c-0.3,0.2-0.5,0.6-0.8,0.8
				C513.2,305.9,513.5,306.3,513.8,306.2L513.8,306.2z"/>
		</g>
	</g>
	<g>
		<g>
			<path class="st4" d="M512.6,306.8c0,0.2,0.1,0.5,0.1,0.7c0,0,0,0,0,0.1c0,0,0,0.1,0,0.1c0,0,0,0,0,0.1c0,0,0,0.1,0,0.1
				c0,0,0,0.1,0,0.1c0,0,0,0,0,0c0,0,0,0,0,0c0,0,0,0.1,0,0.1c0,0,0,0,0,0c0,0,0,0,0,0c-0.1,0.1,0,0.3,0.1,0.3
				c0.1,0.1,0.3,0,0.3-0.1c0.1-0.2,0.1-0.5,0.1-0.8c0-0.1-0.1-0.2-0.1-0.3c0,0,0-0.1,0-0.1c0,0,0-0.1,0,0c0-0.1,0-0.1,0-0.2
				c0-0.1-0.1-0.3-0.2-0.2C512.7,306.6,512.6,306.7,512.6,306.8L512.6,306.8z"/>
		</g>
	</g>
	<g>
		<g>
			<path class="st4" d="M511.9,308c0.1,0.3,0.1,0.6,0.2,0.9c0.1,0.3,0.3,0.5,0.5,0.7c0.4,0.4,0.9,0.8,1.4,0.9c0.1,0,0.3,0,0.3-0.2
				c0-0.1,0-0.3-0.2-0.3c-0.5-0.1-0.9-0.4-1.2-0.8c-0.2-0.2-0.3-0.3-0.4-0.6c-0.1-0.3-0.1-0.6-0.2-0.9c0-0.1-0.2-0.2-0.3-0.2
				C512,307.8,511.9,307.9,511.9,308L511.9,308z"/>
		</g>
	</g>
	<g>
		<g>
			<path class="st4" d="M507.3,306.2c0.9,0.6,1.9,1,2.9,1.4c1,0.4,2,0.8,3.1,0.9c0.3,0.1,0.5-0.4,0.1-0.5c-1-0.2-2-0.5-3-0.9
				c-1-0.4-2-0.8-2.9-1.4C507.3,305.6,507,306,507.3,306.2L507.3,306.2z"/>
		</g>
	</g>
	<g>
		<g>
			<path class="st4" d="M493,310c2.8-2.7,6.2-4,10.1-3.7c3.8,0.3,7.6,1.1,11.2,2.6c0.3,0.1,0.4-0.4,0.1-0.5
				c-3.8-1.5-7.9-2.4-12.1-2.6c-3.7-0.2-7.1,1.4-9.7,3.9C492.4,309.8,492.7,310.2,493,310L493,310z"/>
		</g>
	</g>
	<g>
		<g>
			<path class="st4" d="M527.7,306.6c3.2,0,3.2-5,0-5C524.4,301.6,524.4,306.6,527.7,306.6L527.7,306.6z"/>
		</g>
	</g>
	<g>
		<g>
			<path class="st4" d="M533.3,299.9c2.4,0,2.4-3.8,0-3.8C530.9,296.1,530.9,299.9,533.3,299.9L533.3,299.9z"/>
		</g>
	</g>
	<g>
		<g>
			<path class="st4" d="M510.8,307.6c1.6,0,1.6-2.5,0-2.5C509.2,305.1,509.2,307.6,510.8,307.6L510.8,307.6z"/>
		</g>
	</g>
	<g>
		<g>
			<path class="st4" d="M511.3,305.2c-1.2-0.6-2.5-0.9-3.8-1c-1.3-0.2-2.6-0.4-3.9-0.5c-0.6-0.1-1.4,0.2-1.5,0.9
				c-0.1,0.6,0.2,1.4,0.9,1.5c1.3,0.2,2.5,0.3,3.8,0.5c1.1,0.2,2.5,0.4,3.3,0.8c0.6,0.3,1.4,0.2,1.7-0.4
				C512.1,306.4,512,305.5,511.3,305.2L511.3,305.2z"/>
		</g>
	</g>
</g>
<g id="Capa_6">
</g>
<g id="Capa_2">
	<g>
		<g>
			<path class="st5" d="M481.3,212.2h0.9l0.8,6.6h-0.8l-0.3-3.8c-0.1-0.7-0.1-1.4-0.2-2.1h0c-0.3,0.8-0.7,1.4-1,2.1l-1.9,3.8h-0.9
				L481.3,212.2z M479.5,216.1h2.9l-0.1,0.6h-2.9L479.5,216.1z"/>
			<path class="st5" d="M486.2,212.9h-1.9l0.1-0.7h4.6l-0.1,0.7H487l-1.2,5.9h-0.8L486.2,212.9z"/>
			<path d="M489.1,216.3c0-2.1,1.3-4.2,3.5-4.2c0.8,0,1.3,0.4,1.7,1l-0.5,0.4c-0.3-0.4-0.6-0.7-1.1-0.7c-1.6,0-2.6,1.8-2.6,3.4
				c0,1.2,0.5,2.1,1.7,2.1c0.5,0,0.9-0.2,1.1-0.4l0.4-1.8h-1.4l0.1-0.6h2.1l-0.6,2.8c-0.5,0.4-1.1,0.7-1.9,0.7
				C489.9,218.9,489.1,217.9,489.1,216.3z"/>
		</g>
	</g>
	<g>
		<g>
			<path class="st5" d="M501.4,212.4h0.9l0.8,6.6h-0.8l-0.3-3.8c-0.1-0.7-0.1-1.4-0.2-2.1h0c-0.3,0.8-0.7,1.4-1,2.1l-1.9,3.8h-0.9
				L501.4,212.4z M499.6,216.3h2.9l-0.1,0.6h-2.9L499.6,216.3z"/>
			<path class="st5" d="M506.3,213h-1.9l0.1-0.7h4.6L509,213h-1.9l-1.2,5.9h-0.8L506.3,213z"/>
			<path d="M509.2,216.4c0-2.1,1.3-4.2,3.5-4.2c0.8,0,1.3,0.4,1.7,1l-0.5,0.4c-0.3-0.4-0.6-0.7-1.1-0.7c-1.6,0-2.6,1.8-2.6,3.4
				c0,1.2,0.5,2.1,1.7,2.1c0.5,0,0.9-0.2,1.1-0.4l0.4-1.8h-1.4l0.1-0.6h2.1l-0.6,2.8c-0.5,0.4-1.1,0.7-1.9,0.7
				C510,219,509.2,218,509.2,216.4z"/>
		</g>
	</g>
	<g>
		<g>
			<path class="st5" d="M521.1,212.4h0.9l0.8,6.6H522l-0.3-3.8c-0.1-0.7-0.1-1.4-0.2-2.1h0c-0.3,0.8-0.7,1.4-1,2.1l-1.9,3.8h-0.9
				L521.1,212.4z M519.3,216.3h2.9l-0.1,0.6h-2.9L519.3,216.3z"/>
			<path class="st5" d="M526,213h-1.9l0.1-0.7h4.6l-0.1,0.7h-1.9l-1.2,5.9h-0.8L526,213z"/>
			<path d="M528.8,216.4c0-2.1,1.3-4.2,3.5-4.2c0.8,0,1.3,0.4,1.7,1l-0.5,0.4c-0.3-0.4-0.6-0.7-1.1-0.7c-1.6,0-2.6,1.8-2.6,3.4
				c0,1.2,0.5,2.1,1.7,2.1c0.5,0,0.9-0.2,1.1-0.4l0.4-1.8h-1.4l0.1-0.6h2.1l-0.6,2.8c-0.5,0.4-1.1,0.7-1.9,0.7
				C529.7,219,528.8,218,528.8,216.4z"/>
		</g>
	</g>
	<g>
		<g>
			<path class="st5" d="M540.2,212.5h0.9l0.8,6.6h-0.8l-0.3-3.8c-0.1-0.7-0.1-1.4-0.2-2.1h0c-0.3,0.8-0.7,1.4-1.1,2.1l-1.9,3.8h-0.9
				L540.2,212.5z M538.4,216.4h2.9l-0.1,0.6h-2.9L538.4,216.4z"/>
			<path class="st5" d="M545.1,213.1h-1.9l0.1-0.7h4.6l-0.1,0.7h-1.9l-1.2,5.9H544L545.1,213.1z"/>
			<path d="M548,216.5c0-2.1,1.3-4.2,3.5-4.2c0.8,0,1.3,0.4,1.7,1l-0.5,0.4c-0.3-0.4-0.6-0.7-1.1-0.7c-1.6,0-2.6,1.8-2.6,3.4
				c0,1.2,0.5,2.1,1.7,2.1c0.5,0,0.9-0.2,1.1-0.4l0.4-1.8h-1.4l0.1-0.6h2.1l-0.6,2.8c-0.5,0.4-1.1,0.7-1.9,0.7
				C548.8,219.2,548,218.1,548,216.5z"/>
		</g>
	</g>
	<g>
		<g>
			<path class="st5" d="M471.4,223.1h0.9l0.8,6.6h-0.8l-0.3-3.8c-0.1-0.7-0.1-1.4-0.2-2.1h0c-0.3,0.8-0.7,1.4-1,2.1l-1.9,3.8h-0.9
				L471.4,223.1z M469.6,227h2.9l-0.1,0.6h-2.9L469.6,227z"/>
			<path class="st5" d="M476.3,223.7h-1.9l0.1-0.7h4.6l-0.1,0.7h-1.9l-1.2,5.9h-0.8L476.3,223.7z"/>
			<path d="M479.2,227.1c0-2.1,1.3-4.2,3.5-4.2c0.8,0,1.3,0.4,1.7,1l-0.5,0.4c-0.3-0.4-0.6-0.7-1.1-0.7c-1.6,0-2.6,1.8-2.6,3.4
				c0,1.2,0.5,2.1,1.7,2.1c0.5,0,0.9-0.2,1.1-0.4l0.4-1.8h-1.4l0.1-0.6h2.1l-0.6,2.8c-0.5,0.4-1.1,0.7-1.9,0.7
				C480,229.8,479.2,228.7,479.2,227.1z"/>
		</g>
	</g>
	<g>
		<g>
			<path class="st5" d="M491.5,223.2h0.9l0.8,6.6h-0.8L492,226c-0.1-0.7-0.1-1.4-0.2-2.1h0c-0.3,0.8-0.7,1.4-1,2.1l-1.9,3.8H488
				L491.5,223.2z M489.7,227.1h2.9l-0.1,0.6h-2.9L489.7,227.1z"/>
			<path class="st5" d="M496.4,223.9h-1.9l0.1-0.7h4.6l-0.1,0.7h-1.9l-1.2,5.9h-0.8L496.4,223.9z"/>
			<path d="M499.3,227.2c0-2.1,1.3-4.2,3.5-4.2c0.8,0,1.3,0.4,1.7,1l-0.5,0.4c-0.3-0.4-0.6-0.7-1.1-0.7c-1.6,0-2.6,1.8-2.6,3.4
				c0,1.2,0.5,2.1,1.7,2.1c0.5,0,0.9-0.2,1.1-0.4l0.4-1.8h-1.4l0.1-0.6h2.1l-0.6,2.8c-0.5,0.4-1.1,0.7-1.9,0.7
				C500.1,229.9,499.3,228.8,499.3,227.2z"/>
		</g>
	</g>
	<g>
		<g>
			<path class="st5" d="M511.2,223.2h0.9l0.8,6.6h-0.8l-0.3-3.8c-0.1-0.7-0.1-1.4-0.2-2.1h0c-0.3,0.8-0.7,1.4-1,2.1l-1.9,3.8h-0.9
				L511.2,223.2z M509.4,227.1h2.9l-0.1,0.6h-2.9L509.4,227.1z"/>
			<path class="st5" d="M516.1,223.9h-1.9l0.1-0.7h4.6l-0.1,0.7h-1.9l-1.2,5.9h-0.8L516.1,223.9z"/>
			<path d="M519,227.2c0-2.1,1.3-4.2,3.5-4.2c0.8,0,1.3,0.4,1.7,1l-0.5,0.4c-0.3-0.4-0.6-0.7-1.1-0.7c-1.6,0-2.6,1.8-2.6,3.4
				c0,1.2,0.5,2.1,1.7,2.1c0.5,0,0.9-0.2,1.1-0.4l0.4-1.8h-1.4l0.1-0.6h2.1l-0.6,2.8c-0.5,0.4-1.1,0.7-1.9,0.7
				C519.8,229.9,519,228.8,519,227.2z"/>
		</g>
	</g>
	<g>
		<g>
			<path class="st5" d="M530.3,223.3h0.9l0.8,6.6h-0.8l-0.3-3.8c-0.1-0.7-0.1-1.4-0.2-2.1h0c-0.3,0.8-0.7,1.4-1,2.1l-1.9,3.8h-0.9
				L530.3,223.3z M528.5,227.2h2.9l-0.1,0.6h-2.9L528.5,227.2z"/>
			<path class="st5" d="M535.2,224h-1.9l0.1-0.7h4.6l-0.1,0.7H536l-1.2,5.9h-0.8L535.2,224z"/>
			<path d="M538.1,227.3c0-2.1,1.3-4.2,3.5-4.2c0.8,0,1.3,0.4,1.7,1l-0.5,0.4c-0.3-0.4-0.6-0.7-1.1-0.7c-1.6,0-2.6,1.8-2.6,3.4
				c0,1.2,0.5,2.1,1.7,2.1c0.5,0,0.9-0.2,1.1-0.4l0.4-1.8h-1.4l0.1-0.6h2.1l-0.6,2.8c-0.5,0.4-1.1,0.7-1.9,0.7
				C538.9,230,538.1,228.9,538.1,227.3z"/>
		</g>
	</g>
	<g>
		<g>
			<path class="st5" d="M477.1,233.5h0.9l0.8,6.6h-0.8l-0.3-3.8c-0.1-0.7-0.1-1.4-0.2-2.1h0c-0.3,0.8-0.7,1.4-1,2.1l-1.9,3.8h-0.9
				L477.1,233.5z M475.3,237.4h2.9L478,238h-2.9L475.3,237.4z"/>
			<path class="st5" d="M482,234.2h-1.9l0.1-0.7h4.6l-0.1,0.7h-1.9l-1.2,5.9h-0.8L482,234.2z"/>
			<path d="M484.8,237.5c0-2.1,1.3-4.2,3.5-4.2c0.8,0,1.3,0.4,1.7,1l-0.5,0.4c-0.3-0.4-0.6-0.7-1.1-0.7c-1.6,0-2.6,1.8-2.6,3.4
				c0,1.2,0.5,2.1,1.7,2.1c0.5,0,0.9-0.2,1.1-0.4l0.4-1.8h-1.4l0.1-0.6h2.1l-0.6,2.8c-0.5,0.4-1.1,0.7-1.9,0.7
				C485.7,240.2,484.8,239.1,484.8,237.5z"/>
		</g>
	</g>
	<g>
		<g>
			<path class="st5" d="M497.2,233.6h0.9l0.8,6.6H498l-0.3-3.8c-0.1-0.7-0.1-1.4-0.2-2.1h0c-0.3,0.8-0.7,1.4-1,2.1l-1.9,3.8h-0.9
				L497.2,233.6z M495.3,237.5h2.9l-0.1,0.6h-2.9L495.3,237.5z"/>
			<path class="st5" d="M502.1,234.3h-1.9l0.1-0.7h4.6l-0.1,0.7h-1.9l-1.2,5.9h-0.8L502.1,234.3z"/>
			<path d="M504.9,237.7c0-2.1,1.3-4.2,3.5-4.2c0.8,0,1.3,0.4,1.7,1l-0.5,0.4c-0.3-0.4-0.6-0.7-1.1-0.7c-1.6,0-2.6,1.8-2.6,3.4
				c0,1.2,0.5,2.1,1.7,2.1c0.5,0,0.9-0.2,1.1-0.4l0.4-1.8h-1.4l0.1-0.6h2.1l-0.6,2.8c-0.5,0.4-1.1,0.7-1.9,0.7
				C505.7,240.3,504.9,239.3,504.9,237.7z"/>
		</g>
	</g>
	<g>
		<g>
			<path class="st5" d="M516.8,233.6h0.9l0.8,6.6h-0.8l-0.3-3.8c-0.1-0.7-0.1-1.4-0.2-2.1h0c-0.3,0.8-0.7,1.4-1,2.1l-1.9,3.8h-0.9
				L516.8,233.6z M515,237.5h2.9l-0.1,0.6h-2.9L515,237.5z"/>
			<path class="st5" d="M521.7,234.3h-1.9l0.1-0.7h4.6l-0.1,0.7h-1.9l-1.2,5.9h-0.8L521.7,234.3z"/>
			<path d="M524.6,237.7c0-2.1,1.3-4.2,3.5-4.2c0.8,0,1.3,0.4,1.7,1l-0.5,0.4c-0.3-0.4-0.6-0.7-1.1-0.7c-1.6,0-2.6,1.8-2.6,3.4
				c0,1.2,0.5,2.1,1.7,2.1c0.5,0,0.9-0.2,1.1-0.4l0.4-1.8h-1.4l0.1-0.6h2.1l-0.6,2.8c-0.5,0.4-1.1,0.7-1.9,0.7
				C525.4,240.3,524.6,239.3,524.6,237.7z"/>
		</g>
	</g>
	<g>
		<g>
			<path class="st5" d="M536,233.8h0.9l0.8,6.6h-0.8l-0.3-3.8c-0.1-0.7-0.1-1.4-0.2-2.1h0c-0.3,0.8-0.7,1.4-1,2.1l-1.9,3.8h-0.9
				L536,233.8z M534.1,237.7h2.9l-0.1,0.6H534L534.1,237.7z"/>
			<path class="st5" d="M540.9,234.4H539l0.1-0.7h4.6l-0.1,0.7h-1.9l-1.2,5.9h-0.8L540.9,234.4z"/>
			<path d="M543.7,237.8c0-2.1,1.3-4.2,3.5-4.2c0.8,0,1.3,0.4,1.7,1l-0.5,0.4c-0.3-0.4-0.6-0.7-1.1-0.7c-1.6,0-2.6,1.8-2.6,3.4
				c0,1.2,0.5,2.1,1.7,2.1c0.5,0,0.9-0.2,1.1-0.4l0.4-1.8h-1.4l0.1-0.6h2.1l-0.6,2.8c-0.5,0.4-1.1,0.7-1.9,0.7
				C544.5,240.4,543.7,239.4,543.7,237.8z"/>
		</g>
	</g>
	<g>
		<g>
			<path class="st5" d="M486.8,243.7h0.9l0.8,6.6h-0.8l-0.3-3.8c-0.1-0.7-0.1-1.4-0.2-2.1h0c-0.3,0.8-0.7,1.4-1,2.1l-1.9,3.8h-0.9
				L486.8,243.7z M485,247.6h2.9l-0.1,0.6h-2.9L485,247.6z"/>
			<path class="st5" d="M491.7,244.4h-1.9l0.1-0.7h4.6l-0.1,0.7h-1.9l-1.2,5.9h-0.8L491.7,244.4z"/>
			<path d="M494.6,247.8c0-2.1,1.3-4.2,3.5-4.2c0.8,0,1.3,0.4,1.7,1l-0.5,0.4c-0.3-0.4-0.6-0.7-1.1-0.7c-1.6,0-2.6,1.8-2.6,3.4
				c0,1.2,0.5,2.1,1.7,2.1c0.5,0,0.9-0.2,1.1-0.4l0.4-1.8h-1.4l0.1-0.6h2.1l-0.6,2.8c-0.5,0.4-1.1,0.7-1.9,0.7
				C495.4,250.4,494.6,249.4,494.6,247.8z"/>
		</g>
	</g>
	<g>
		<g>
			<path class="st5" d="M506.9,243.9h0.9l0.8,6.6h-0.8l-0.3-3.8c-0.1-0.7-0.1-1.4-0.2-2.1h0c-0.3,0.8-0.7,1.4-1,2.1l-1.9,3.8h-0.9
				L506.9,243.9z M505.1,247.8h2.9l-0.1,0.6H505L505.1,247.8z"/>
			<path class="st5" d="M511.8,244.5h-1.9l0.1-0.7h4.6l-0.1,0.7h-1.9l-1.2,5.9h-0.8L511.8,244.5z"/>
			<path d="M514.7,247.9c0-2.1,1.3-4.2,3.5-4.2c0.8,0,1.3,0.4,1.7,1l-0.5,0.4c-0.3-0.4-0.6-0.7-1.1-0.7c-1.6,0-2.6,1.8-2.6,3.4
				c0,1.2,0.5,2.1,1.7,2.1c0.5,0,0.9-0.2,1.1-0.4l0.4-1.8h-1.4l0.1-0.6h2.1l-0.6,2.8c-0.5,0.4-1.1,0.7-1.9,0.7
				C515.5,250.5,514.7,249.5,514.7,247.9z"/>
		</g>
	</g>
	<g>
		<g>
			<path class="st5" d="M526.6,243.9h0.9l0.8,6.6h-0.8l-0.3-3.8c-0.1-0.7-0.1-1.4-0.2-2.1h0c-0.3,0.8-0.7,1.4-1,2.1l-1.9,3.8H523
				L526.6,243.9z M524.8,247.8h2.9l-0.1,0.6h-2.9L524.8,247.8z"/>
			<path class="st5" d="M531.5,244.5h-1.9l0.1-0.7h4.6l-0.1,0.7h-1.9l-1.2,5.9h-0.8L531.5,244.5z"/>
			<path d="M534.3,247.9c0-2.1,1.3-4.2,3.5-4.2c0.8,0,1.3,0.4,1.7,1l-0.5,0.4c-0.3-0.4-0.6-0.7-1.1-0.7c-1.6,0-2.6,1.8-2.6,3.4
				c0,1.2,0.5,2.1,1.7,2.1c0.5,0,0.9-0.2,1.1-0.4l0.4-1.8H537l0.1-0.6h2.1l-0.6,2.8c-0.5,0.4-1.1,0.7-1.9,0.7
				C535.2,250.5,534.3,249.5,534.3,247.9z"/>
		</g>
	</g>
	<g>
		<g>
			<path class="st5" d="M545.7,244h0.9l0.8,6.6h-0.8l-0.3-3.8c-0.1-0.7-0.1-1.4-0.2-2.1h0c-0.3,0.8-0.7,1.4-1,2.1l-1.9,3.8h-0.9
				L545.7,244z M543.9,247.9h2.9l-0.1,0.6h-2.9L543.9,247.9z"/>
			<path class="st5" d="M550.6,244.6h-1.9l0.1-0.7h4.6l-0.1,0.7h-1.9l-1.2,5.9h-0.8L550.6,244.6z"/>
			<path d="M553.5,248c0-2.1,1.3-4.2,3.5-4.2c0.8,0,1.3,0.4,1.7,1l-0.5,0.4c-0.3-0.4-0.6-0.7-1.1-0.7c-1.6,0-2.6,1.8-2.6,3.4
				c0,1.2,0.5,2.1,1.7,2.1c0.5,0,0.9-0.2,1.1-0.4l0.4-1.8h-1.4l0.1-0.6h2.1l-0.6,2.8c-0.5,0.4-1.1,0.7-1.9,0.7
				C554.3,250.7,553.5,249.6,553.5,248z"/>
		</g>
	</g>
	<g>
		<g>
			<path class="st5" d="M472.3,254.2h0.9l0.8,6.6h-0.8l-0.3-3.8c-0.1-0.7-0.1-1.4-0.2-2.1h0c-0.3,0.8-0.7,1.4-1,2.1l-1.9,3.8h-0.9
				L472.3,254.2z M470.4,258.1h2.9l-0.1,0.6h-2.9L470.4,258.1z"/>
			<path class="st5" d="M477.2,254.9h-1.9l0.1-0.7h4.6l-0.1,0.7h-1.9l-1.2,5.9H476L477.2,254.9z"/>
			<path d="M480,258.2c0-2.1,1.3-4.2,3.5-4.2c0.8,0,1.3,0.4,1.7,1l-0.5,0.4c-0.3-0.4-0.6-0.7-1.1-0.7c-1.6,0-2.6,1.8-2.6,3.4
				c0,1.2,0.5,2.1,1.7,2.1c0.5,0,0.9-0.2,1.1-0.4l0.4-1.8h-1.4l0.1-0.6h2.1l-0.6,2.8c-0.5,0.4-1.1,0.7-1.9,0.7
				C480.8,260.9,480,259.8,480,258.2z"/>
		</g>
	</g>
	<g>
		<g>
			<path class="st5" d="M492.3,254.3h0.9l0.8,6.6h-0.8l-0.3-3.8c-0.1-0.7-0.1-1.4-0.2-2.1h0c-0.3,0.8-0.7,1.4-1,2.1l-1.9,3.8h-0.9
				L492.3,254.3z M490.5,258.2h2.9l-0.1,0.6h-2.9L490.5,258.2z"/>
			<path class="st5" d="M497.2,255h-1.9l0.1-0.7h4.6l-0.1,0.7H498l-1.2,5.9h-0.8L497.2,255z"/>
			<path d="M500.1,258.3c0-2.1,1.3-4.2,3.5-4.2c0.8,0,1.3,0.4,1.7,1l-0.5,0.4c-0.3-0.4-0.6-0.7-1.1-0.7c-1.6,0-2.6,1.8-2.6,3.4
				c0,1.2,0.5,2.1,1.7,2.1c0.5,0,0.9-0.2,1.1-0.4l0.4-1.8h-1.4l0.1-0.6h2.1l-0.6,2.8c-0.5,0.4-1.1,0.7-1.9,0.7
				C500.9,261,500.1,259.9,500.1,258.3z"/>
		</g>
	</g>
	<g>
		<g>
			<path class="st5" d="M512,254.3h0.9l0.8,6.6h-0.8l-0.3-3.8c-0.1-0.7-0.1-1.4-0.2-2.1h0c-0.3,0.8-0.7,1.4-1,2.1l-1.9,3.8h-0.9
				L512,254.3z M510.2,258.2h2.9l-0.1,0.6h-2.9L510.2,258.2z"/>
			<path class="st5" d="M516.9,255H515l0.1-0.7h4.6l-0.1,0.7h-1.9l-1.2,5.9h-0.8L516.9,255z"/>
			<path d="M519.8,258.3c0-2.1,1.3-4.2,3.5-4.2c0.8,0,1.3,0.4,1.7,1l-0.5,0.4c-0.3-0.4-0.6-0.7-1.1-0.7c-1.6,0-2.6,1.8-2.6,3.4
				c0,1.2,0.5,2.1,1.7,2.1c0.5,0,0.9-0.2,1.1-0.4l0.4-1.8h-1.4l0.1-0.6h2.1l-0.6,2.8c-0.5,0.4-1.1,0.7-1.9,0.7
				C520.6,261,519.8,259.9,519.8,258.3z"/>
		</g>
	</g>
	<g>
		<g>
			<path class="st5" d="M531.1,254.4h0.9l0.8,6.6H532l-0.3-3.8c-0.1-0.7-0.1-1.4-0.2-2.1h0c-0.3,0.8-0.7,1.4-1,2.1l-1.9,3.8h-0.9
				L531.1,254.4z M529.3,258.3h2.9l-0.1,0.6h-2.9L529.3,258.3z"/>
			<path class="st5" d="M536,255.1h-1.9l0.1-0.7h4.6l-0.1,0.7h-1.9l-1.2,5.9h-0.8L536,255.1z"/>
			<path d="M538.9,258.5c0-2.1,1.3-4.2,3.5-4.2c0.8,0,1.3,0.4,1.7,1l-0.5,0.4c-0.3-0.4-0.6-0.7-1.1-0.7c-1.6,0-2.6,1.8-2.6,3.4
				c0,1.2,0.5,2.1,1.7,2.1c0.5,0,0.9-0.2,1.1-0.4l0.4-1.8h-1.4l0.1-0.6h2.1l-0.6,2.8c-0.5,0.4-1.1,0.7-1.9,0.7
				C539.7,261.1,538.9,260.1,538.9,258.5z"/>
		</g>
	</g>
	<g>
		<g>
			<path class="st6" d="M568.8,212.9h0.9l0.8,6.6h-0.8l-0.3-3.8c-0.1-0.7-0.1-1.4-0.2-2.1h0c-0.3,0.8-0.7,1.4-1,2.1l-1.9,3.8h-0.9
				L568.8,212.9z M567,216.8h2.9l-0.1,0.6h-2.9L567,216.8z"/>
			<path class="st7" d="M573.9,212.9h0.9l0.8,6.6h-0.8l-0.3-3.8c-0.1-0.7-0.1-1.4-0.2-2.1h0c-0.3,0.8-0.7,1.4-1,2.1l-1.9,3.8h-0.9
				L573.9,212.9z M572.1,216.8h2.9l-0.1,0.6h-2.9L572.1,216.8z"/>
			<path class="st7" d="M576.5,216.9c0-2.1,1.4-4.2,3.4-4.2c0.7,0,1.3,0.4,1.6,1l-0.5,0.4c-0.3-0.4-0.6-0.7-1.1-0.7
				c-1.6,0-2.5,1.8-2.5,3.4c0,1.2,0.5,2,1.7,2c0.5,0,1-0.2,1.4-0.6l0.4,0.5c-0.5,0.4-1.1,0.8-1.9,0.8
				C577.4,219.5,576.5,218.5,576.5,216.9z"/>
		</g>
	</g>
	<g>
		<g>
			<path class="st6" d="M588.4,212.9h0.9l0.8,6.6h-0.8l-0.3-3.8c-0.1-0.7-0.1-1.4-0.2-2.1h0c-0.3,0.8-0.7,1.4-1,2.1l-1.9,3.8h-0.9
				L588.4,212.9z M586.6,216.8h2.9l-0.1,0.6h-2.9L586.6,216.8z"/>
			<path class="st7" d="M593.5,212.9h0.9l0.8,6.6h-0.8l-0.3-3.8c-0.1-0.7-0.1-1.4-0.2-2.1h0c-0.3,0.8-0.7,1.4-1,2.1l-1.9,3.8H590
				L593.5,212.9z M591.7,216.8h2.9l-0.1,0.6h-2.9L591.7,216.8z"/>
			<path class="st7" d="M596.2,216.9c0-2.1,1.4-4.2,3.4-4.2c0.7,0,1.3,0.4,1.6,1l-0.5,0.4c-0.3-0.4-0.6-0.7-1.1-0.7
				c-1.6,0-2.5,1.8-2.5,3.4c0,1.2,0.5,2,1.7,2c0.5,0,1-0.2,1.4-0.6l0.4,0.5c-0.5,0.4-1.1,0.8-1.9,0.8
				C597,219.5,596.2,218.5,596.2,216.9z"/>
		</g>
	</g>
	<g>
		<g>
			<path class="st6" d="M607.5,212.9h0.9l0.8,6.6h-0.8l-0.3-3.8c-0.1-0.7-0.1-1.4-0.2-2.1h0c-0.3,0.8-0.7,1.4-1,2.1l-1.9,3.8H604
				L607.5,212.9z M605.7,216.8h2.9l-0.1,0.6h-2.9L605.7,216.8z"/>
			<path class="st7" d="M612.6,212.9h0.9l0.8,6.6h-0.8l-0.3-3.8c-0.1-0.7-0.1-1.4-0.2-2.1h0c-0.3,0.8-0.7,1.4-1,2.1l-1.9,3.8h-0.9
				L612.6,212.9z M610.8,216.8h2.9l-0.1,0.6h-2.9L610.8,216.8z"/>
			<path class="st7" d="M615.3,216.9c0-2.1,1.4-4.2,3.4-4.2c0.7,0,1.3,0.4,1.6,1l-0.5,0.4c-0.3-0.4-0.6-0.7-1.1-0.7
				c-1.6,0-2.5,1.8-2.5,3.4c0,1.2,0.5,2,1.7,2c0.5,0,1-0.2,1.4-0.6l0.4,0.5c-0.5,0.4-1.1,0.8-1.9,0.8
				C616.1,219.5,615.3,218.5,615.3,216.9z"/>
		</g>
	</g>
	<g>
		<g>
			<path class="st6" d="M560.6,223.3h0.9l0.8,6.6h-0.8l-0.3-3.8c-0.1-0.7-0.1-1.4-0.2-2.1h0c-0.3,0.8-0.7,1.4-1,2.1l-1.9,3.8H557
				L560.6,223.3z M558.7,227.3h2.9l-0.1,0.6h-2.9L558.7,227.3z"/>
			<path class="st7" d="M565.7,223.3h0.9l0.8,6.6h-0.8l-0.3-3.8c-0.1-0.7-0.1-1.4-0.2-2.1h0c-0.3,0.8-0.7,1.4-1,2.1l-1.9,3.8h-0.9
				L565.7,223.3z M563.8,227.3h2.9l-0.1,0.6h-2.9L563.8,227.3z"/>
			<path class="st7" d="M568.3,227.4c0-2.1,1.4-4.2,3.4-4.2c0.7,0,1.3,0.4,1.6,1l-0.5,0.4c-0.3-0.4-0.6-0.7-1.1-0.7
				c-1.6,0-2.5,1.8-2.5,3.4c0,1.2,0.5,2,1.7,2c0.5,0,1-0.2,1.4-0.6l0.4,0.5c-0.5,0.4-1.1,0.8-1.9,0.8
				C569.1,230,568.3,229,568.3,227.4z"/>
		</g>
	</g>
	<g>
		<g>
			<path class="st6" d="M580,223.3h0.9l0.8,6.6h-0.8l-0.3-3.8c-0.1-0.7-0.1-1.4-0.2-2.1h0c-0.3,0.8-0.7,1.4-1,2.1l-1.9,3.8h-0.9
				L580,223.3z M578.2,227.3h2.9l-0.1,0.6h-2.9L578.2,227.3z"/>
			<path class="st7" d="M585.1,223.3h0.9l0.8,6.6H586l-0.3-3.8c-0.1-0.7-0.1-1.4-0.2-2.1h0c-0.3,0.8-0.7,1.4-1,2.1l-1.9,3.8h-0.9
				L585.1,223.3z M583.3,227.3h2.9l-0.1,0.6h-2.9L583.3,227.3z"/>
			<path class="st7" d="M587.8,227.4c0-2.1,1.4-4.2,3.4-4.2c0.7,0,1.3,0.4,1.6,1l-0.5,0.4c-0.3-0.4-0.6-0.7-1.1-0.7
				c-1.6,0-2.5,1.8-2.5,3.4c0,1.2,0.5,2,1.7,2c0.5,0,1-0.2,1.4-0.6l0.4,0.5c-0.5,0.4-1.1,0.8-1.9,0.8
				C588.6,230,587.8,229,587.8,227.4z"/>
		</g>
	</g>
	<g>
		<g>
			<path class="st6" d="M599.5,223.5h0.9l0.8,6.6h-0.8l-0.3-3.8c-0.1-0.7-0.1-1.4-0.2-2.1h0c-0.3,0.8-0.7,1.4-1,2.1l-1.9,3.8h-0.9
				L599.5,223.5z M597.7,227.4h2.9l-0.1,0.6h-2.9L597.7,227.4z"/>
			<path class="st7" d="M604.6,223.5h0.9l0.8,6.6h-0.8l-0.3-3.8c-0.1-0.7-0.1-1.4-0.2-2.1h0c-0.3,0.8-0.7,1.4-1,2.1l-1.9,3.8H601
				L604.6,223.5z M602.8,227.4h2.9l-0.1,0.6h-2.9L602.8,227.4z"/>
			<path class="st7" d="M607.2,227.5c0-2.1,1.4-4.2,3.4-4.2c0.7,0,1.3,0.4,1.6,1l-0.5,0.4c-0.3-0.4-0.6-0.7-1.1-0.7
				c-1.6,0-2.5,1.8-2.5,3.4c0,1.2,0.5,2,1.7,2c0.5,0,1-0.2,1.4-0.6l0.4,0.5c-0.5,0.4-1.1,0.8-1.9,0.8
				C608,230.1,607.2,229.1,607.2,227.5z"/>
		</g>
	</g>
	<g>
		<g>
			<path class="st6" d="M564.3,233.7h0.9l0.8,6.6h-0.8l-0.3-3.8c-0.1-0.7-0.1-1.4-0.2-2.1h0c-0.3,0.8-0.7,1.4-1,2.1l-1.9,3.8h-0.9
				L564.3,233.7z M562.5,237.6h2.9l-0.1,0.6h-2.9L562.5,237.6z"/>
			<path class="st7" d="M569.4,233.7h0.9l0.8,6.6h-0.8l-0.3-3.8c-0.1-0.7-0.1-1.4-0.2-2.1h0c-0.3,0.8-0.7,1.4-1,2.1l-1.9,3.8h-0.9
				L569.4,233.7z M567.6,237.6h2.9l-0.1,0.6h-2.9L567.6,237.6z"/>
			<path class="st7" d="M572.1,237.8c0-2.1,1.4-4.2,3.4-4.2c0.7,0,1.3,0.4,1.6,1l-0.5,0.4c-0.3-0.4-0.6-0.7-1.1-0.7
				c-1.6,0-2.5,1.8-2.5,3.4c0,1.2,0.5,2,1.7,2c0.5,0,1-0.2,1.4-0.6l0.4,0.5c-0.5,0.4-1.1,0.8-1.9,0.8
				C572.9,240.4,572.1,239.3,572.1,237.8z"/>
		</g>
	</g>
	<g>
		<g>
			<path class="st6" d="M584.4,233.7h0.9l0.8,6.6h-0.8l-0.3-3.8c-0.1-0.7-0.1-1.4-0.2-2.1h0c-0.3,0.8-0.7,1.4-1,2.1l-1.9,3.8h-0.9
				L584.4,233.7z M582.5,237.6h2.9l-0.1,0.6h-2.9L582.5,237.6z"/>
			<path class="st7" d="M589.5,233.7h0.9l0.8,6.6h-0.8l-0.3-3.8c-0.1-0.7-0.1-1.4-0.2-2.1h0c-0.3,0.8-0.7,1.4-1,2.1l-1.9,3.8h-0.9
				L589.5,233.7z M587.6,237.6h2.9l-0.1,0.6h-2.9L587.6,237.6z"/>
			<path class="st7" d="M592.1,237.8c0-2.1,1.4-4.2,3.4-4.2c0.7,0,1.3,0.4,1.6,1l-0.5,0.4c-0.3-0.4-0.6-0.7-1.1-0.7
				c-1.6,0-2.5,1.8-2.5,3.4c0,1.2,0.5,2,1.7,2c0.5,0,1-0.2,1.4-0.6l0.4,0.5c-0.5,0.4-1.1,0.8-1.9,0.8
				C592.9,240.4,592.1,239.3,592.1,237.8z"/>
		</g>
	</g>
	<g>
		<g>
			<path class="st6" d="M604,233.7h0.9l0.8,6.6h-0.8l-0.3-3.8c-0.1-0.7-0.1-1.4-0.2-2.1h0c-0.3,0.8-0.7,1.4-1,2.1l-1.9,3.8h-0.9
				L604,233.7z M602.2,237.6h2.9l-0.1,0.6H602L602.2,237.6z"/>
			<path class="st7" d="M609.1,233.7h0.9l0.8,6.6h-0.8l-0.3-3.8c-0.1-0.7-0.1-1.4-0.2-2.1h0c-0.3,0.8-0.7,1.4-1,2.1l-1.9,3.8h-0.9
				L609.1,233.7z M607.3,237.6h2.9l-0.1,0.6h-2.9L607.3,237.6z"/>
			<path class="st7" d="M611.7,237.8c0-2.1,1.4-4.2,3.4-4.2c0.7,0,1.3,0.4,1.6,1l-0.5,0.4c-0.3-0.4-0.6-0.7-1.1-0.7
				c-1.6,0-2.5,1.8-2.5,3.4c0,1.2,0.5,2,1.7,2c0.5,0,1-0.2,1.4-0.6l0.4,0.5c-0.5,0.4-1.1,0.8-1.9,0.8
				C612.6,240.4,611.7,239.3,611.7,237.8z"/>
		</g>
	</g>
	<g>
		<g>
			<path class="st6" d="M571.1,244.7h0.9l0.8,6.6H572l-0.3-3.8c-0.1-0.7-0.1-1.4-0.2-2.1h0c-0.3,0.8-0.7,1.4-1,2.1l-1.9,3.8h-0.9
				L571.1,244.7z M569.3,248.6h2.9l-0.1,0.6h-2.9L569.3,248.6z"/>
			<path class="st7" d="M576.2,244.7h0.9l0.8,6.6h-0.8l-0.3-3.8c-0.1-0.7-0.1-1.4-0.2-2.1h0c-0.3,0.8-0.7,1.4-1,2.1l-1.9,3.8h-0.9
				L576.2,244.7z M574.4,248.6h2.9l-0.1,0.6h-2.9L574.4,248.6z"/>
			<path class="st7" d="M578.9,248.8c0-2.1,1.4-4.2,3.4-4.2c0.7,0,1.3,0.4,1.6,1l-0.5,0.4c-0.3-0.4-0.6-0.7-1.1-0.7
				c-1.6,0-2.5,1.8-2.5,3.4c0,1.2,0.5,2,1.7,2c0.5,0,1-0.2,1.4-0.6l0.4,0.5c-0.5,0.4-1.1,0.8-1.9,0.8
				C579.7,251.4,578.9,250.3,578.9,248.8z"/>
		</g>
	</g>
	<g>
		<g>
			<path class="st6" d="M591.2,244.7h0.9l0.8,6.6H592l-0.3-3.8c-0.1-0.7-0.1-1.4-0.2-2.1h0c-0.3,0.8-0.7,1.4-1,2.1l-1.9,3.8h-0.9
				L591.2,244.7z M589.3,248.6h2.9l-0.1,0.6h-2.9L589.3,248.6z"/>
			<path class="st7" d="M596.3,244.7h0.9l0.8,6.6h-0.8l-0.3-3.8c-0.1-0.7-0.1-1.4-0.2-2.1h0c-0.3,0.8-0.7,1.4-1,2.1l-1.9,3.8h-0.9
				L596.3,244.7z M594.4,248.6h2.9l-0.1,0.6h-2.9L594.4,248.6z"/>
			<path class="st7" d="M598.9,248.8c0-2.1,1.4-4.2,3.4-4.2c0.7,0,1.3,0.4,1.6,1l-0.5,0.4c-0.3-0.4-0.6-0.7-1.1-0.7
				c-1.6,0-2.5,1.8-2.5,3.4c0,1.2,0.5,2,1.7,2c0.5,0,1-0.2,1.4-0.6l0.4,0.5c-0.5,0.4-1.1,0.8-1.9,0.8
				C599.7,251.4,598.9,250.3,598.9,248.8z"/>
		</g>
	</g>
	<g>
		<g>
			<path class="st6" d="M612.3,244.7h0.9l0.8,6.6h-0.8l-0.3-3.8c-0.1-0.7-0.1-1.4-0.2-2.1h0c-0.3,0.8-0.7,1.4-1,2.1l-1.9,3.8h-0.9
				L612.3,244.7z M610.5,248.6h2.9l-0.1,0.6h-2.9L610.5,248.6z"/>
			<path class="st7" d="M617.4,244.7h0.9l0.8,6.6h-0.8l-0.3-3.8c-0.1-0.7-0.1-1.4-0.2-2.1h0c-0.3,0.8-0.7,1.4-1,2.1l-1.9,3.8h-0.9
				L617.4,244.7z M615.6,248.6h2.9l-0.1,0.6h-2.9L615.6,248.6z"/>
			<path class="st7" d="M620.1,248.8c0-2.1,1.4-4.2,3.4-4.2c0.7,0,1.3,0.4,1.6,1l-0.5,0.4c-0.3-0.4-0.6-0.7-1.1-0.7
				c-1.6,0-2.5,1.8-2.5,3.4c0,1.2,0.5,2,1.7,2c0.5,0,1-0.2,1.4-0.6l0.4,0.5c-0.5,0.4-1.1,0.8-1.9,0.8
				C620.9,251.4,620.1,250.3,620.1,248.8z"/>
		</g>
	</g>
	<g>
		<g>
			<path class="st6" d="M561.2,255.5h0.9l0.8,6.6H562l-0.3-3.8c-0.1-0.7-0.1-1.4-0.2-2.1h0c-0.3,0.8-0.7,1.4-1,2.1l-1.9,3.8h-0.9
				L561.2,255.5z M559.3,259.4h2.9l-0.1,0.6h-2.9L559.3,259.4z"/>
			<path class="st7" d="M566.3,255.5h0.9l0.8,6.6h-0.8l-0.3-3.8c-0.1-0.7-0.1-1.4-0.2-2.1h0c-0.3,0.8-0.7,1.4-1,2.1l-1.9,3.8h-0.9
				L566.3,255.5z M564.4,259.4h2.9l-0.1,0.6h-2.9L564.4,259.4z"/>
			<path class="st7" d="M568.9,259.6c0-2.1,1.4-4.2,3.4-4.2c0.7,0,1.3,0.4,1.6,1l-0.5,0.4c-0.3-0.4-0.6-0.7-1.1-0.7
				c-1.6,0-2.5,1.8-2.5,3.4c0,1.2,0.5,2,1.7,2c0.5,0,1-0.2,1.4-0.6l0.4,0.5c-0.5,0.4-1.1,0.8-1.9,0.8
				C569.7,262.2,568.9,261.1,568.9,259.6z"/>
		</g>
	</g>
	<g>
		<g>
			<path class="st6" d="M580.6,255.5h0.9l0.8,6.6h-0.8l-0.3-3.8c-0.1-0.7-0.1-1.4-0.2-2.1h0c-0.3,0.8-0.7,1.4-1,2.1l-1.9,3.8h-0.9
				L580.6,255.5z M578.8,259.4h2.9l-0.1,0.6h-2.9L578.8,259.4z"/>
			<path class="st7" d="M585.7,255.5h0.9l0.8,6.6h-0.8l-0.3-3.8c-0.1-0.7-0.1-1.4-0.2-2.1h0c-0.3,0.8-0.7,1.4-1,2.1L583,262h-0.9
				L585.7,255.5z M583.9,259.4h2.9l-0.1,0.6h-2.9L583.9,259.4z"/>
			<path class="st7" d="M588.4,259.5c0-2.1,1.4-4.2,3.4-4.2c0.7,0,1.3,0.4,1.6,1l-0.5,0.4c-0.3-0.4-0.6-0.7-1.1-0.7
				c-1.6,0-2.5,1.8-2.5,3.4c0,1.2,0.5,2,1.7,2c0.5,0,1-0.2,1.4-0.6l0.4,0.5c-0.5,0.4-1.1,0.8-1.9,0.8
				C589.2,262.1,588.4,261.1,588.4,259.5z"/>
		</g>
	</g>
	<g>
		<g>
			<path class="st6" d="M599.5,255.4h0.9l0.8,6.6h-0.8l-0.3-3.8c-0.1-0.7-0.1-1.4-0.2-2.1h0c-0.3,0.8-0.7,1.4-1,2.1l-1.9,3.8H596
				L599.5,255.4z M597.7,259.3h2.9l-0.1,0.6h-2.9L597.7,259.3z"/>
			<path class="st7" d="M604.6,255.4h0.9l0.8,6.6h-0.8l-0.3-3.8c-0.1-0.7-0.1-1.4-0.2-2.1h0c-0.3,0.8-0.7,1.4-1,2.1l-1.9,3.8h-0.9
				L604.6,255.4z M602.8,259.3h2.9l-0.1,0.6h-2.9L602.8,259.3z"/>
			<path class="st7" d="M607.3,259.4c0-2.1,1.4-4.2,3.4-4.2c0.7,0,1.3,0.4,1.6,1l-0.5,0.4c-0.3-0.4-0.6-0.7-1.1-0.7
				c-1.6,0-2.5,1.8-2.5,3.4c0,1.2,0.5,2,1.7,2c0.5,0,1-0.2,1.4-0.6l0.4,0.5c-0.5,0.4-1.1,0.8-1.9,0.8
				C608.1,262.1,607.3,261,607.3,259.4z"/>
		</g>
	</g>
	<g>
		<g>
			<path class="st6" d="M626.5,212.9h0.9l0.8,6.6h-0.8l-0.3-3.8c-0.1-0.7-0.1-1.4-0.2-2.1h0c-0.3,0.8-0.7,1.4-1,2.1l-1.9,3.8h-0.9
				L626.5,212.9z M624.7,216.8h2.9l-0.1,0.6h-2.9L624.7,216.8z"/>
			<path class="st7" d="M631.6,212.9h0.9l0.8,6.6h-0.8l-0.3-3.8c-0.1-0.7-0.1-1.4-0.2-2.1h0c-0.3,0.8-0.7,1.4-1,2.1l-1.9,3.8H628
				L631.6,212.9z M629.8,216.8h2.9l-0.1,0.6h-2.9L629.8,216.8z"/>
			<path class="st7" d="M634.2,216.9c0-2.1,1.4-4.2,3.4-4.2c0.7,0,1.3,0.4,1.6,1l-0.5,0.4c-0.3-0.4-0.6-0.7-1.1-0.7
				c-1.6,0-2.5,1.8-2.5,3.4c0,1.2,0.5,2,1.7,2c0.5,0,1-0.2,1.4-0.6l0.4,0.5c-0.5,0.4-1.1,0.8-1.9,0.8
				C635,219.5,634.2,218.5,634.2,216.9z"/>
		</g>
	</g>
	<g>
		<g>
			<path class="st6" d="M617.8,223.2h0.9l0.8,6.6h-0.8l-0.3-3.8c-0.1-0.7-0.1-1.4-0.2-2.1h0c-0.3,0.8-0.7,1.4-1,2.1l-1.9,3.8h-0.9
				L617.8,223.2z M615.9,227.1h2.9l-0.1,0.6h-2.9L615.9,227.1z"/>
			<path class="st7" d="M622.9,223.2h0.9l0.8,6.6h-0.8l-0.3-3.8c-0.1-0.7-0.1-1.4-0.2-2.1h0c-0.3,0.8-0.7,1.4-1,2.1l-1.9,3.8h-0.9
				L622.9,223.2z M621,227.1h2.9l-0.1,0.6h-2.9L621,227.1z"/>
			<path class="st7" d="M625.5,227.2c0-2.1,1.4-4.2,3.4-4.2c0.7,0,1.3,0.4,1.6,1l-0.5,0.4c-0.3-0.4-0.6-0.7-1.1-0.7
				c-1.6,0-2.5,1.8-2.5,3.4c0,1.2,0.5,2,1.7,2c0.5,0,1-0.2,1.4-0.6l0.4,0.5c-0.5,0.4-1.1,0.8-1.9,0.8
				C626.3,229.9,625.5,228.8,625.5,227.2z"/>
		</g>
	</g>
	<g>
		<g>
			<path class="st6" d="M624.2,233.3h0.9l0.8,6.6h-0.8l-0.3-3.8c-0.1-0.7-0.1-1.4-0.2-2.1h0c-0.3,0.8-0.7,1.4-1,2.1l-1.9,3.8h-0.9
				L624.2,233.3z M622.4,237.2h2.9l-0.1,0.6h-2.9L622.4,237.2z"/>
			<path class="st7" d="M629.3,233.3h0.9l0.8,6.6h-0.8l-0.3-3.8c-0.1-0.7-0.1-1.4-0.2-2.1h0c-0.3,0.8-0.7,1.4-1,2.1l-1.9,3.8h-0.9
				L629.3,233.3z M627.5,237.2h2.9l-0.1,0.6h-2.9L627.5,237.2z"/>
			<path class="st7" d="M632,237.4c0-2.1,1.4-4.2,3.4-4.2c0.7,0,1.3,0.4,1.6,1l-0.5,0.4c-0.3-0.4-0.6-0.7-1.1-0.7
				c-1.6,0-2.5,1.8-2.5,3.4c0,1.2,0.5,2,1.7,2c0.5,0,1-0.2,1.4-0.6l0.4,0.5c-0.5,0.4-1.1,0.8-1.9,0.8C632.8,240,632,238.9,632,237.4
				z"/>
		</g>
	</g>
	<g>
		<g>
			<path class="st6" d="M620.3,255.5h0.9l0.8,6.6h-0.8l-0.3-3.8c-0.1-0.7-0.1-1.4-0.2-2.1h0c-0.3,0.8-0.7,1.4-1,2.1l-1.9,3.8h-0.9
				L620.3,255.5z M618.5,259.4h2.9l-0.1,0.6h-2.9L618.5,259.4z"/>
			<path class="st7" d="M625.4,255.5h0.9l0.8,6.6h-0.8l-0.3-3.8c-0.1-0.7-0.1-1.4-0.2-2.1h0c-0.3,0.8-0.7,1.4-1,2.1l-1.9,3.8h-0.9
				L625.4,255.5z M623.6,259.4h2.9l-0.1,0.6h-2.9L623.6,259.4z"/>
			<path class="st7" d="M628.1,259.5c0-2.1,1.4-4.2,3.4-4.2c0.7,0,1.3,0.4,1.6,1l-0.5,0.4c-0.3-0.4-0.6-0.7-1.1-0.7
				c-1.6,0-2.5,1.8-2.5,3.4c0,1.2,0.5,2,1.7,2c0.5,0,1-0.2,1.4-0.6l0.4,0.5c-0.5,0.4-1.1,0.8-1.9,0.8
				C628.9,262.1,628.1,261.1,628.1,259.5z"/>
		</g>
	</g>
	<g>
		<g>
			<path class="st8" d="M649.8,217c0-2.1,1.3-4.2,3.5-4.2c0.8,0,1.3,0.4,1.7,1l-0.5,0.4c-0.3-0.4-0.6-0.7-1.1-0.7
				c-1.6,0-2.6,1.8-2.6,3.4c0,1.2,0.5,2.1,1.7,2.1c0.5,0,0.9-0.2,1.1-0.4l0.4-1.8h-1.4l0.1-0.6h2.1l-0.6,2.8
				c-0.5,0.4-1.1,0.7-1.9,0.7C650.6,219.6,649.8,218.5,649.8,217z"/>
			<path class="st6" d="M657.9,213.6H656l0.1-0.7h4.6l-0.1,0.7h-1.9l-1.2,5.9h-0.8L657.9,213.6z"/>
			<path class="st6" d="M660.7,217c0-2.1,1.4-4.2,3.4-4.2c0.7,0,1.3,0.4,1.6,1l-0.5,0.4c-0.3-0.4-0.6-0.7-1.1-0.7
				c-1.6,0-2.5,1.8-2.5,3.4c0,1.2,0.5,2,1.7,2c0.5,0,1-0.2,1.4-0.6l0.4,0.5c-0.5,0.4-1.1,0.8-1.9,0.8
				C661.6,219.6,660.7,218.5,660.7,217z"/>
		</g>
	</g>
	<g>
		<g>
			<path class="st8" d="M668.1,217c0-2.1,1.3-4.2,3.5-4.2c0.8,0,1.3,0.4,1.7,1l-0.5,0.4c-0.3-0.4-0.6-0.7-1.1-0.7
				c-1.6,0-2.6,1.8-2.6,3.4c0,1.2,0.5,2.1,1.7,2.1c0.5,0,0.9-0.2,1.1-0.4l0.4-1.8h-1.4l0.1-0.6h2.1l-0.6,2.8
				c-0.5,0.4-1.1,0.7-1.9,0.7C668.9,219.6,668.1,218.5,668.1,217z"/>
			<path class="st6" d="M676.2,213.6h-1.9l0.1-0.7h4.6l-0.1,0.7H677l-1.2,5.9h-0.8L676.2,213.6z"/>
			<path class="st6" d="M679.1,217c0-2.1,1.4-4.2,3.4-4.2c0.7,0,1.3,0.4,1.6,1l-0.5,0.4c-0.3-0.4-0.6-0.7-1.1-0.7
				c-1.6,0-2.5,1.8-2.5,3.4c0,1.2,0.5,2,1.7,2c0.5,0,1-0.2,1.4-0.6l0.4,0.5c-0.5,0.4-1.1,0.8-1.9,0.8
				C679.9,219.6,679.1,218.5,679.1,217z"/>
		</g>
	</g>
	<g>
		<g>
			<path class="st8" d="M686.8,217.1c0-2.1,1.3-4.2,3.5-4.2c0.8,0,1.3,0.4,1.7,1l-0.5,0.4c-0.3-0.4-0.6-0.7-1.1-0.7
				c-1.6,0-2.6,1.8-2.6,3.4c0,1.2,0.5,2.1,1.7,2.1c0.5,0,0.9-0.2,1.1-0.4l0.4-1.8h-1.4l0.1-0.6h2.1l-0.6,2.8
				c-0.5,0.4-1.1,0.7-1.9,0.7C687.6,219.7,686.8,218.7,686.8,217.1z"/>
			<path class="st6" d="M694.9,213.7H693l0.1-0.7h4.6l-0.1,0.7h-1.9l-1.2,5.9h-0.8L694.9,213.7z"/>
			<path class="st6" d="M697.7,217.1c0-2.1,1.4-4.2,3.4-4.2c0.7,0,1.3,0.4,1.6,1l-0.5,0.4c-0.3-0.4-0.6-0.7-1.1-0.7
				c-1.6,0-2.5,1.8-2.5,3.4c0,1.2,0.5,2,1.7,2c0.5,0,1-0.2,1.4-0.6l0.4,0.5c-0.5,0.4-1.1,0.8-1.9,0.8
				C698.6,219.7,697.7,218.6,697.7,217.1z"/>
		</g>
	</g>
	<g>
		<g>
			<path class="st8" d="M681.5,259.5c0-2.1,1.3-4.2,3.5-4.2c0.8,0,1.3,0.4,1.7,1l-0.5,0.4c-0.3-0.4-0.6-0.7-1.1-0.7
				c-1.6,0-2.7,1.8-2.7,3.4c0,1.2,0.5,2.1,1.7,2.1c0.5,0,0.9-0.2,1.1-0.4l0.4-1.8h-1.4l0.1-0.6h2.1l-0.6,2.8
				c-0.5,0.4-1.1,0.7-1.9,0.7C682.3,262.1,681.5,261.1,681.5,259.5z"/>
			<path class="st6" d="M689.6,256.1h-1.9l0.1-0.7h4.6l-0.1,0.7h-1.9l-1.2,5.9h-0.8L689.6,256.1z"/>
			<path class="st6" d="M692.5,259.5c0-2.1,1.4-4.2,3.4-4.2c0.7,0,1.3,0.4,1.6,1l-0.5,0.4c-0.3-0.4-0.6-0.7-1.1-0.7
				c-1.6,0-2.5,1.8-2.5,3.4c0,1.2,0.5,2,1.7,2c0.5,0,1-0.2,1.4-0.6l0.4,0.5c-0.5,0.4-1.1,0.8-1.9,0.8
				C693.3,262.1,692.5,261.1,692.5,259.5z"/>
		</g>
	</g>
	<g>
		<g>
			<path class="st8" d="M674.5,248.7c0-2.1,1.3-4.2,3.5-4.2c0.8,0,1.3,0.4,1.7,1l-0.5,0.4c-0.3-0.4-0.6-0.7-1.1-0.7
				c-1.6,0-2.6,1.8-2.6,3.4c0,1.2,0.5,2.1,1.7,2.1c0.5,0,0.9-0.2,1.1-0.4l0.4-1.8h-1.4l0.1-0.6h2.1l-0.6,2.8
				c-0.5,0.4-1.1,0.7-1.9,0.7C675.3,251.3,674.5,250.2,674.5,248.7z"/>
			<path class="st6" d="M682.6,245.3h-1.9l0.1-0.7h4.6l-0.1,0.7h-1.9l-1.2,5.9h-0.8L682.6,245.3z"/>
			<path class="st6" d="M685.4,248.7c0-2.1,1.4-4.2,3.4-4.2c0.7,0,1.3,0.4,1.6,1l-0.5,0.4c-0.3-0.4-0.6-0.7-1.1-0.7
				c-1.6,0-2.5,1.8-2.5,3.4c0,1.2,0.5,2,1.7,2c0.5,0,1-0.2,1.4-0.6l0.4,0.5c-0.5,0.4-1.1,0.8-1.9,0.8
				C686.3,251.3,685.4,250.2,685.4,248.7z"/>
		</g>
	</g>
	<g>
		<g>
			<path class="st8" d="M660.9,259.5c0-2.1,1.3-4.2,3.5-4.2c0.8,0,1.3,0.4,1.7,1l-0.5,0.4c-0.3-0.4-0.6-0.7-1.1-0.7
				c-1.6,0-2.6,1.8-2.6,3.4c0,1.2,0.5,2.1,1.7,2.1c0.5,0,0.9-0.2,1.1-0.4l0.4-1.8h-1.4l0.1-0.6h2.1l-0.6,2.8
				c-0.5,0.4-1.1,0.7-1.9,0.7C661.7,262.1,660.9,261.1,660.9,259.5z"/>
			<path class="st6" d="M669,256.1h-1.9l0.1-0.7h4.6l-0.1,0.7h-1.9l-1.2,5.9h-0.8L669,256.1z"/>
			<path class="st6" d="M671.9,259.5c0-2.1,1.4-4.2,3.4-4.2c0.7,0,1.3,0.4,1.6,1l-0.5,0.4c-0.3-0.4-0.6-0.7-1.1-0.7
				c-1.6,0-2.5,1.8-2.5,3.4c0,1.2,0.5,2,1.7,2c0.5,0,1-0.2,1.4-0.6l0.4,0.5c-0.5,0.4-1.1,0.8-1.9,0.8
				C672.7,262.1,671.9,261.1,671.9,259.5z"/>
		</g>
	</g>
	<g>
		<g>
			<path class="st8" d="M639.9,259.2c0-2.1,1.3-4.2,3.5-4.2c0.8,0,1.3,0.4,1.7,1l-0.5,0.4c-0.3-0.4-0.6-0.7-1.1-0.7
				c-1.6,0-2.6,1.8-2.6,3.4c0,1.2,0.5,2.1,1.7,2.1c0.5,0,0.9-0.2,1.1-0.4l0.4-1.8h-1.4l0.1-0.6h2.1l-0.6,2.8
				c-0.5,0.4-1.1,0.7-1.9,0.7C640.8,261.8,639.9,260.8,639.9,259.2z"/>
			<path class="st6" d="M648.1,255.8h-1.9l0.1-0.7h4.6l-0.1,0.7h-1.9l-1.2,5.9h-0.8L648.1,255.8z"/>
			<path class="st6" d="M650.9,259.2c0-2.1,1.4-4.2,3.4-4.2c0.7,0,1.3,0.4,1.6,1l-0.5,0.4c-0.3-0.4-0.6-0.7-1.1-0.7
				c-1.6,0-2.5,1.8-2.5,3.4c0,1.2,0.5,2,1.7,2c0.5,0,1-0.2,1.4-0.6l0.4,0.5c-0.5,0.4-1.1,0.8-1.9,0.8
				C651.8,261.8,650.9,260.8,650.9,259.2z"/>
		</g>
	</g>
	<g>
		<g>
			<path class="st8" d="M650.7,248.5c0-2.1,1.3-4.2,3.5-4.2c0.8,0,1.3,0.4,1.7,1l-0.5,0.4c-0.3-0.4-0.6-0.7-1.1-0.7
				c-1.6,0-2.6,1.8-2.6,3.4c0,1.2,0.5,2.1,1.7,2.1c0.5,0,0.9-0.2,1.1-0.4l0.4-1.8h-1.4l0.1-0.6h2.1l-0.6,2.8
				c-0.5,0.4-1.1,0.7-1.9,0.7C651.5,251.2,650.7,250.1,650.7,248.5z"/>
			<path class="st6" d="M658.8,245.2h-1.9l0.1-0.7h4.6l-0.1,0.7h-1.9l-1.2,5.9h-0.8L658.8,245.2z"/>
			<path class="st6" d="M661.7,248.5c0-2.1,1.4-4.2,3.4-4.2c0.7,0,1.3,0.4,1.6,1l-0.5,0.4c-0.3-0.4-0.6-0.7-1.1-0.7
				c-1.6,0-2.5,1.8-2.5,3.4c0,1.2,0.5,2,1.7,2c0.5,0,1-0.2,1.4-0.6l0.4,0.5c-0.5,0.4-1.1,0.8-1.9,0.8
				C662.5,251.2,661.7,250.1,661.7,248.5z"/>
		</g>
	</g>
	<g>
		<g>
			<path class="st8" d="M641,237.8c0-2.1,1.3-4.2,3.5-4.2c0.8,0,1.3,0.4,1.7,1l-0.5,0.4c-0.3-0.4-0.6-0.7-1.1-0.7
				c-1.6,0-2.6,1.8-2.6,3.4c0,1.2,0.5,2.1,1.7,2.1c0.5,0,0.9-0.2,1.1-0.4l0.4-1.8h-1.4l0.1-0.6h2.1l-0.6,2.8
				c-0.5,0.4-1.1,0.7-1.9,0.7C641.8,240.5,641,239.4,641,237.8z"/>
			<path class="st6" d="M649.1,234.4h-1.9l0.1-0.7h4.6l-0.1,0.7h-1.9l-1.2,5.9H648L649.1,234.4z"/>
			<path class="st6" d="M652,237.8c0-2.1,1.4-4.2,3.4-4.2c0.7,0,1.3,0.4,1.6,1l-0.5,0.4c-0.3-0.4-0.6-0.7-1.1-0.7
				c-1.6,0-2.5,1.8-2.5,3.4c0,1.2,0.5,2,1.7,2c0.5,0,1-0.2,1.4-0.6l0.4,0.5c-0.5,0.4-1.1,0.8-1.9,0.8
				C652.8,240.5,652,239.4,652,237.8z"/>
		</g>
	</g>
	<g>
		<g>
			<path class="st8" d="M662.8,237.8c0-2.1,1.3-4.2,3.5-4.2c0.8,0,1.3,0.4,1.7,1l-0.5,0.4c-0.3-0.4-0.6-0.7-1.1-0.7
				c-1.6,0-2.6,1.8-2.6,3.4c0,1.2,0.5,2.1,1.7,2.1c0.5,0,0.9-0.2,1.1-0.4l0.4-1.8h-1.4l0.1-0.6h2.1l-0.6,2.8
				c-0.5,0.4-1.1,0.7-1.9,0.7C663.7,240.5,662.8,239.4,662.8,237.8z"/>
			<path class="st6" d="M671,234.4h-1.9l0.1-0.7h4.6l-0.1,0.7h-1.9l-1.2,5.9h-0.8L671,234.4z"/>
			<path class="st6" d="M673.8,237.8c0-2.1,1.4-4.2,3.4-4.2c0.7,0,1.3,0.4,1.6,1l-0.5,0.4c-0.3-0.4-0.6-0.7-1.1-0.7
				c-1.6,0-2.5,1.8-2.5,3.4c0,1.2,0.5,2,1.7,2c0.5,0,1-0.2,1.4-0.6l0.4,0.5c-0.5,0.4-1.1,0.8-1.9,0.8
				C674.6,240.5,673.8,239.4,673.8,237.8z"/>
		</g>
	</g>
	<g>
		<g>
			<path class="st8" d="M690.5,238.4c0-2.1,1.3-4.2,3.5-4.2c0.8,0,1.3,0.4,1.7,1l-0.5,0.4c-0.3-0.4-0.6-0.7-1.1-0.7
				c-1.6,0-2.6,1.8-2.6,3.4c0,1.2,0.5,2.1,1.7,2.1c0.5,0,0.9-0.2,1.1-0.4l0.4-1.8h-1.4l0.1-0.6h2.1l-0.6,2.8
				c-0.5,0.4-1.1,0.7-1.9,0.7C691.4,241,690.5,240,690.5,238.4z"/>
			<path class="st6" d="M698.7,235h-1.9l0.1-0.7h4.6l-0.1,0.7h-1.9l-1.2,5.9h-0.8L698.7,235z"/>
			<path class="st6" d="M701.5,238.4c0-2.1,1.4-4.2,3.4-4.2c0.7,0,1.3,0.4,1.6,1l-0.5,0.4c-0.3-0.4-0.6-0.7-1.1-0.7
				c-1.6,0-2.5,1.8-2.5,3.4c0,1.2,0.5,2,1.7,2c0.5,0,1-0.2,1.4-0.6l0.4,0.5c-0.5,0.4-1.1,0.8-1.9,0.8
				C702.3,241,701.5,239.9,701.5,238.4z"/>
		</g>
	</g>
	<g>
		<g>
			<path class="st8" d="M687.3,227.5c0-2.1,1.3-4.2,3.5-4.2c0.8,0,1.3,0.4,1.7,1l-0.5,0.4c-0.3-0.4-0.6-0.7-1.1-0.7
				c-1.6,0-2.6,1.8-2.6,3.4c0,1.2,0.5,2.1,1.7,2.1c0.5,0,0.9-0.2,1.1-0.4l0.4-1.8H690l0.1-0.6h2.1l-0.6,2.8
				c-0.5,0.4-1.1,0.7-1.9,0.7C688.2,230.1,687.3,229.1,687.3,227.5z"/>
			<path class="st6" d="M695.5,224.1h-1.9l0.1-0.7h4.6l-0.1,0.7h-1.9l-1.2,5.9h-0.8L695.5,224.1z"/>
			<path class="st6" d="M698.3,227.5c0-2.1,1.4-4.2,3.4-4.2c0.7,0,1.3,0.4,1.6,1l-0.5,0.4c-0.3-0.4-0.6-0.7-1.1-0.7
				c-1.6,0-2.5,1.8-2.5,3.4c0,1.2,0.5,2,1.7,2c0.5,0,1-0.2,1.4-0.6l0.4,0.5c-0.5,0.4-1.1,0.8-1.9,0.8
				C699.1,230.1,698.3,229.1,698.3,227.5z"/>
		</g>
	</g>
	<g>
		<g>
			<path class="st8" d="M663.4,227.2c0-2.1,1.3-4.2,3.5-4.2c0.8,0,1.3,0.4,1.7,1l-0.5,0.4c-0.3-0.4-0.6-0.7-1.1-0.7
				c-1.6,0-2.6,1.8-2.6,3.4c0,1.2,0.5,2.1,1.7,2.1c0.5,0,0.9-0.2,1.1-0.4l0.4-1.8h-1.4l0.1-0.6h2.1l-0.6,2.8
				c-0.5,0.4-1.1,0.7-1.9,0.7C664.2,229.9,663.4,228.8,663.4,227.2z"/>
			<path class="st6" d="M671.5,223.9h-1.9l0.1-0.7h4.6l-0.1,0.7h-1.9l-1.2,5.9h-0.8L671.5,223.9z"/>
			<path class="st6" d="M674.4,227.2c0-2.1,1.4-4.2,3.4-4.2c0.7,0,1.3,0.4,1.6,1l-0.5,0.4c-0.3-0.4-0.6-0.7-1.1-0.7
				c-1.6,0-2.5,1.8-2.5,3.4c0,1.2,0.5,2,1.7,2c0.5,0,1-0.2,1.4-0.6l0.4,0.5c-0.5,0.4-1.1,0.8-1.9,0.8
				C675.2,229.9,674.4,228.8,674.4,227.2z"/>
		</g>
	</g>
	<g>
		<g>
			<path class="st8" d="M637.4,227.7c0-2.1,1.3-4.2,3.5-4.2c0.8,0,1.3,0.4,1.7,1l-0.5,0.4c-0.3-0.4-0.6-0.7-1.1-0.7
				c-1.6,0-2.6,1.8-2.6,3.4c0,1.2,0.5,2.1,1.7,2.1c0.5,0,0.9-0.2,1.1-0.4l0.4-1.8H640l0.1-0.6h2.1l-0.6,2.8
				c-0.5,0.4-1.1,0.7-1.9,0.7C638.2,230.3,637.4,229.3,637.4,227.7z"/>
			<path class="st6" d="M645.5,224.3h-1.9l0.1-0.7h4.6l-0.1,0.7h-1.9l-1.2,5.9h-0.8L645.5,224.3z"/>
			<path class="st6" d="M648.3,227.7c0-2.1,1.4-4.2,3.4-4.2c0.7,0,1.3,0.4,1.6,1l-0.5,0.4c-0.3-0.4-0.6-0.7-1.1-0.7
				c-1.6,0-2.5,1.8-2.5,3.4c0,1.2,0.5,2,1.7,2c0.5,0,1-0.2,1.4-0.6l0.4,0.5c-0.5,0.4-1.1,0.8-1.9,0.8
				C649.2,230.3,648.3,229.3,648.3,227.7z"/>
		</g>
	</g>
	<g>
		<g>
			<path class="st8" d="M632.1,248.5c0-2.1,1.3-4.2,3.5-4.2c0.8,0,1.3,0.4,1.7,1l-0.5,0.4c-0.3-0.4-0.6-0.7-1.1-0.7
				c-1.6,0-2.6,1.8-2.6,3.4c0,1.2,0.5,2.1,1.7,2.1c0.5,0,0.9-0.2,1.1-0.4l0.4-1.8h-1.4l0.1-0.6h2.1l-0.6,2.8
				c-0.5,0.4-1.1,0.7-1.9,0.7C633,251.2,632.1,250.1,632.1,248.5z"/>
			<path class="st6" d="M640.3,245.2h-1.9l0.1-0.7h4.6l-0.1,0.7H641l-1.2,5.9h-0.8L640.3,245.2z"/>
			<path class="st6" d="M643.1,248.5c0-2.1,1.4-4.2,3.4-4.2c0.7,0,1.3,0.4,1.6,1l-0.5,0.4c-0.3-0.4-0.6-0.7-1.1-0.7
				c-1.6,0-2.5,1.8-2.5,3.4c0,1.2,0.5,2,1.7,2c0.5,0,1-0.2,1.4-0.6l0.4,0.5c-0.5,0.4-1.1,0.8-1.9,0.8
				C643.9,251.2,643.1,250.1,643.1,248.5z"/>
		</g>
	</g>
	<g>
		<g class="st9">
			<path class="st10" d="M481.3,212.2h0.9l0.8,6.6h-0.8l-0.3-3.8c-0.1-0.7-0.1-1.4-0.2-2.1h0c-0.3,0.8-0.7,1.4-1,2.1l-1.9,3.8h-0.9
				L481.3,212.2z M479.5,216.1h2.9l-0.1,0.6h-2.9L479.5,216.1z"/>
			<path class="st10" d="M486.2,212.9h-1.9l0.1-0.7h4.6l-0.1,0.7H487l-1.2,5.9h-0.8L486.2,212.9z"/>
			<path class="st10" d="M489.1,216.3c0-2.1,1.3-4.2,3.5-4.2c0.8,0,1.3,0.4,1.7,1l-0.5,0.4c-0.3-0.4-0.6-0.7-1.1-0.7
				c-1.6,0-2.6,1.8-2.6,3.4c0,1.2,0.5,2.1,1.7,2.1c0.5,0,0.9-0.2,1.1-0.4l0.4-1.8h-1.4l0.1-0.6h2.1l-0.6,2.8
				c-0.5,0.4-1.1,0.7-1.9,0.7C489.9,218.9,489.1,217.9,489.1,216.3z"/>
		</g>
	</g>
	<g>
		<g class="st9">
			<path class="st10" d="M501.4,212.4h0.9l0.8,6.6h-0.8l-0.3-3.8c-0.1-0.7-0.1-1.4-0.2-2.1h0c-0.3,0.8-0.7,1.4-1,2.1l-1.9,3.8h-0.9
				L501.4,212.4z M499.6,216.3h2.9l-0.1,0.6h-2.9L499.6,216.3z"/>
			<path class="st10" d="M506.3,213h-1.9l0.1-0.7h4.6L509,213h-1.9l-1.2,5.9h-0.8L506.3,213z"/>
			<path class="st10" d="M509.2,216.4c0-2.1,1.3-4.2,3.5-4.2c0.8,0,1.3,0.4,1.7,1l-0.5,0.4c-0.3-0.4-0.6-0.7-1.1-0.7
				c-1.6,0-2.6,1.8-2.6,3.4c0,1.2,0.5,2.1,1.7,2.1c0.5,0,0.9-0.2,1.1-0.4l0.4-1.8h-1.4l0.1-0.6h2.1l-0.6,2.8
				c-0.5,0.4-1.1,0.7-1.9,0.7C510,219,509.2,218,509.2,216.4z"/>
		</g>
	</g>
	<g>
		<g class="st9">
			<path class="st10" d="M521.1,212.4h0.9l0.8,6.6H522l-0.3-3.8c-0.1-0.7-0.1-1.4-0.2-2.1h0c-0.3,0.8-0.7,1.4-1,2.1l-1.9,3.8h-0.9
				L521.1,212.4z M519.3,216.3h2.9l-0.1,0.6h-2.9L519.3,216.3z"/>
			<path class="st10" d="M526,213h-1.9l0.1-0.7h4.6l-0.1,0.7h-1.9l-1.2,5.9h-0.8L526,213z"/>
			<path class="st10" d="M528.8,216.4c0-2.1,1.3-4.2,3.5-4.2c0.8,0,1.3,0.4,1.7,1l-0.5,0.4c-0.3-0.4-0.6-0.7-1.1-0.7
				c-1.6,0-2.7,1.8-2.7,3.4c0,1.2,0.5,2.1,1.7,2.1c0.5,0,0.9-0.2,1.1-0.4l0.4-1.8h-1.4l0.1-0.6h2.1l-0.6,2.8
				c-0.5,0.4-1.1,0.7-1.9,0.7C529.7,219,528.8,218,528.8,216.4z"/>
		</g>
	</g>
	<g>
		<g class="st9">
			<path class="st10" d="M540.2,212.5h0.9l0.8,6.6h-0.8l-0.3-3.8c-0.1-0.7-0.1-1.4-0.2-2.1h0c-0.3,0.8-0.7,1.4-1,2.1l-1.9,3.8h-0.9
				L540.2,212.5z M538.4,216.4h2.9l-0.1,0.6h-2.9L538.4,216.4z"/>
			<path class="st10" d="M545.1,213.1h-1.9l0.1-0.7h4.6l-0.1,0.7h-1.9l-1.2,5.9H544L545.1,213.1z"/>
			<path class="st10" d="M548,216.5c0-2.1,1.3-4.2,3.5-4.2c0.8,0,1.3,0.4,1.7,1l-0.5,0.4c-0.3-0.4-0.6-0.7-1.1-0.7
				c-1.6,0-2.6,1.8-2.6,3.4c0,1.2,0.5,2.1,1.7,2.1c0.5,0,0.9-0.2,1.1-0.4l0.4-1.8h-1.4l0.1-0.6h2.1l-0.6,2.8
				c-0.5,0.4-1.1,0.7-1.9,0.7C548.8,219.2,548,218.1,548,216.5z"/>
		</g>
	</g>
	<g>
		<g class="st9">
			<path class="st10" d="M471.4,223.1h0.9l0.8,6.6h-0.8l-0.3-3.8c-0.1-0.7-0.1-1.4-0.2-2.1h0c-0.3,0.8-0.7,1.4-1,2.1l-1.9,3.8h-0.9
				L471.4,223.1z M469.6,227h2.9l-0.1,0.6h-2.9L469.6,227z"/>
			<path class="st10" d="M476.3,223.7h-1.9l0.1-0.7h4.6l-0.1,0.7h-1.9l-1.2,5.9h-0.8L476.3,223.7z"/>
			<path class="st10" d="M479.2,227.1c0-2.1,1.3-4.2,3.5-4.2c0.8,0,1.3,0.4,1.7,1l-0.5,0.4c-0.3-0.4-0.6-0.7-1.1-0.7
				c-1.6,0-2.6,1.8-2.6,3.4c0,1.2,0.5,2.1,1.7,2.1c0.5,0,0.9-0.2,1.1-0.4l0.4-1.8h-1.4l0.1-0.6h2.1l-0.6,2.8
				c-0.5,0.4-1.1,0.7-1.9,0.7C480,229.7,479.2,228.7,479.2,227.1z"/>
		</g>
	</g>
	<g>
		<g class="st9">
			<path class="st10" d="M491.5,223.2h0.9l0.8,6.6h-0.8L492,226c-0.1-0.7-0.1-1.4-0.2-2.1h0c-0.3,0.8-0.7,1.4-1,2.1l-1.9,3.8H488
				L491.5,223.2z M489.7,227.1h2.9l-0.1,0.6h-2.9L489.7,227.1z"/>
			<path class="st10" d="M496.4,223.9h-1.9l0.1-0.7h4.6l-0.1,0.7h-1.9l-1.2,5.9h-0.8L496.4,223.9z"/>
			<path class="st10" d="M499.3,227.2c0-2.1,1.3-4.2,3.5-4.2c0.8,0,1.3,0.4,1.7,1l-0.5,0.4c-0.3-0.4-0.6-0.7-1.1-0.7
				c-1.6,0-2.6,1.8-2.6,3.4c0,1.2,0.5,2.1,1.7,2.1c0.5,0,0.9-0.2,1.1-0.4l0.4-1.8h-1.4l0.1-0.6h2.1l-0.6,2.8
				c-0.5,0.4-1.1,0.7-1.9,0.7C500.1,229.9,499.3,228.8,499.3,227.2z"/>
		</g>
	</g>
	<g>
		<g class="st9">
			<path class="st10" d="M511.2,223.2h0.9l0.8,6.6h-0.8l-0.3-3.8c-0.1-0.7-0.1-1.4-0.2-2.1h0c-0.3,0.8-0.7,1.4-1,2.1l-1.9,3.8h-0.9
				L511.2,223.2z M509.4,227.1h2.9l-0.1,0.6h-2.9L509.4,227.1z"/>
			<path class="st10" d="M516.1,223.9h-1.9l0.1-0.7h4.6l-0.1,0.7h-1.9l-1.2,5.9h-0.8L516.1,223.9z"/>
			<path class="st10" d="M519,227.2c0-2.1,1.3-4.2,3.5-4.2c0.8,0,1.3,0.4,1.7,1l-0.5,0.4c-0.3-0.4-0.6-0.7-1.1-0.7
				c-1.6,0-2.6,1.8-2.6,3.4c0,1.2,0.5,2.1,1.7,2.1c0.5,0,0.9-0.2,1.1-0.4l0.4-1.8h-1.4l0.1-0.6h2.1l-0.6,2.8
				c-0.5,0.4-1.1,0.7-1.9,0.7C519.8,229.9,519,228.8,519,227.2z"/>
		</g>
	</g>
	<g>
		<g class="st9">
			<path class="st10" d="M530.3,223.3h0.9l0.8,6.6h-0.8l-0.3-3.8c-0.1-0.7-0.1-1.4-0.2-2.1h0c-0.3,0.8-0.7,1.4-1,2.1l-1.9,3.8h-0.9
				L530.3,223.3z M528.5,227.2h2.9l-0.1,0.6h-2.9L528.5,227.2z"/>
			<path class="st10" d="M535.2,224h-1.9l0.1-0.7h4.6l-0.1,0.7H536l-1.2,5.9h-0.8L535.2,224z"/>
			<path class="st10" d="M538.1,227.3c0-2.1,1.3-4.2,3.5-4.2c0.8,0,1.3,0.4,1.7,1l-0.5,0.4c-0.3-0.4-0.6-0.7-1.1-0.7
				c-1.6,0-2.6,1.8-2.6,3.4c0,1.2,0.5,2.1,1.7,2.1c0.5,0,0.9-0.2,1.1-0.4l0.4-1.8h-1.4l0.1-0.6h2.1l-0.6,2.8
				c-0.5,0.4-1.1,0.7-1.9,0.7C538.9,230,538.1,228.9,538.1,227.3z"/>
		</g>
	</g>
	<g>
		<g class="st9">
			<path class="st10" d="M477.1,233.5h0.9l0.8,6.6h-0.8l-0.3-3.8c-0.1-0.7-0.1-1.4-0.2-2.1h0c-0.3,0.8-0.7,1.4-1,2.1l-1.9,3.8h-0.9
				L477.1,233.5z M475.3,237.4h2.9L478,238h-2.9L475.3,237.4z"/>
			<path class="st10" d="M482,234.2h-1.9l0.1-0.7h4.6l-0.1,0.7h-1.9l-1.2,5.9h-0.8L482,234.2z"/>
			<path class="st10" d="M484.8,237.5c0-2.1,1.3-4.2,3.5-4.2c0.8,0,1.3,0.4,1.7,1l-0.5,0.4c-0.3-0.4-0.6-0.7-1.1-0.7
				c-1.6,0-2.6,1.8-2.6,3.4c0,1.2,0.5,2.1,1.7,2.1c0.5,0,0.9-0.2,1.1-0.4l0.4-1.8h-1.4l0.1-0.6h2.1l-0.6,2.8
				c-0.5,0.4-1.1,0.7-1.9,0.7C485.7,240.2,484.8,239.1,484.8,237.5z"/>
		</g>
	</g>
	<g>
		<g class="st9">
			<path class="st10" d="M497.2,233.6h0.9l0.8,6.6H498l-0.3-3.8c-0.1-0.7-0.1-1.4-0.2-2.1h0c-0.3,0.8-0.7,1.4-1,2.1l-1.9,3.8h-0.9
				L497.2,233.6z M495.3,237.5h2.9l-0.1,0.6h-2.9L495.3,237.5z"/>
			<path class="st10" d="M502.1,234.3h-1.9l0.1-0.7h4.6l-0.1,0.7h-1.9l-1.2,5.9h-0.8L502.1,234.3z"/>
			<path class="st10" d="M504.9,237.7c0-2.1,1.3-4.2,3.5-4.2c0.8,0,1.3,0.4,1.7,1l-0.5,0.4c-0.3-0.4-0.6-0.7-1.1-0.7
				c-1.6,0-2.6,1.8-2.6,3.4c0,1.2,0.5,2.1,1.7,2.1c0.5,0,0.9-0.2,1.1-0.4l0.4-1.8h-1.4l0.1-0.6h2.1l-0.6,2.8
				c-0.5,0.4-1.1,0.7-1.9,0.7C505.7,240.3,504.9,239.3,504.9,237.7z"/>
		</g>
	</g>
	<g>
		<g class="st9">
			<path class="st10" d="M516.8,233.6h0.9l0.8,6.6h-0.8l-0.3-3.8c-0.1-0.7-0.1-1.4-0.2-2.1h0c-0.3,0.8-0.7,1.4-1,2.1l-1.9,3.8h-0.9
				L516.8,233.6z M515,237.5h2.9l-0.1,0.6h-2.9L515,237.5z"/>
			<path class="st10" d="M521.7,234.3h-1.9l0.1-0.7h4.6l-0.1,0.7h-1.9l-1.2,5.9h-0.8L521.7,234.3z"/>
			<path class="st10" d="M524.6,237.7c0-2.1,1.3-4.2,3.5-4.2c0.8,0,1.3,0.4,1.7,1l-0.5,0.4c-0.3-0.4-0.6-0.7-1.1-0.7
				c-1.6,0-2.6,1.8-2.6,3.4c0,1.2,0.5,2.1,1.7,2.1c0.5,0,0.9-0.2,1.1-0.4l0.4-1.8h-1.4l0.1-0.6h2.1l-0.6,2.8
				c-0.5,0.4-1.1,0.7-1.9,0.7C525.4,240.3,524.6,239.3,524.6,237.7z"/>
		</g>
	</g>
	<g>
		<g class="st9">
			<path class="st10" d="M536,233.8h0.9l0.8,6.6h-0.8l-0.3-3.8c-0.1-0.7-0.1-1.4-0.2-2.1h0c-0.3,0.8-0.7,1.4-1,2.1l-1.9,3.8h-0.9
				L536,233.8z M534.2,237.7h2.9l-0.1,0.6H534L534.2,237.7z"/>
			<path class="st10" d="M540.9,234.4H539l0.1-0.7h4.6l-0.1,0.7h-1.9l-1.2,5.9h-0.8L540.9,234.4z"/>
			<path class="st10" d="M543.7,237.8c0-2.1,1.3-4.2,3.5-4.2c0.8,0,1.3,0.4,1.7,1l-0.5,0.4c-0.3-0.4-0.6-0.7-1.1-0.7
				c-1.6,0-2.6,1.8-2.6,3.4c0,1.2,0.5,2.1,1.7,2.1c0.5,0,0.9-0.2,1.1-0.4l0.4-1.8h-1.4l0.1-0.6h2.1l-0.6,2.8
				c-0.5,0.4-1.1,0.7-1.9,0.7C544.5,240.4,543.7,239.4,543.7,237.8z"/>
		</g>
	</g>
	<g>
		<g class="st9">
			<path class="st10" d="M486.8,243.7h0.9l0.8,6.6h-0.8l-0.3-3.8c-0.1-0.7-0.1-1.4-0.2-2.1h0c-0.3,0.8-0.7,1.4-1,2.1l-1.9,3.8h-0.9
				L486.8,243.7z M485,247.6h2.9l-0.1,0.6h-2.9L485,247.6z"/>
			<path class="st10" d="M491.7,244.4h-1.9l0.1-0.7h4.6l-0.1,0.7h-1.9l-1.2,5.9h-0.8L491.7,244.4z"/>
			<path class="st10" d="M494.6,247.8c0-2.1,1.3-4.2,3.5-4.2c0.8,0,1.3,0.4,1.7,1l-0.5,0.4c-0.3-0.4-0.6-0.7-1.1-0.7
				c-1.6,0-2.6,1.8-2.6,3.4c0,1.2,0.5,2.1,1.7,2.1c0.5,0,0.9-0.2,1.1-0.4l0.4-1.8h-1.4l0.1-0.6h2.1l-0.6,2.8
				c-0.5,0.4-1.1,0.7-1.9,0.7C495.4,250.4,494.6,249.4,494.6,247.8z"/>
		</g>
	</g>
	<g>
		<g class="st9">
			<path class="st10" d="M506.9,243.9h0.9l0.8,6.6h-0.8l-0.3-3.8c-0.1-0.7-0.1-1.4-0.2-2.1h0c-0.3,0.8-0.7,1.4-1,2.1l-1.9,3.8h-0.9
				L506.9,243.9z M505.1,247.8h2.9l-0.1,0.6H505L505.1,247.8z"/>
			<path class="st10" d="M511.8,244.5h-1.9l0.1-0.7h4.6l-0.1,0.7h-1.9l-1.2,5.9h-0.8L511.8,244.5z"/>
			<path class="st10" d="M514.7,247.9c0-2.1,1.3-4.2,3.5-4.2c0.8,0,1.3,0.4,1.7,1l-0.5,0.4c-0.3-0.4-0.6-0.7-1.1-0.7
				c-1.6,0-2.6,1.8-2.6,3.4c0,1.2,0.5,2.1,1.7,2.1c0.5,0,0.9-0.2,1.1-0.4l0.4-1.8h-1.4l0.1-0.6h2.1l-0.6,2.8
				c-0.5,0.4-1.1,0.7-1.9,0.7C515.5,250.5,514.7,249.5,514.7,247.9z"/>
		</g>
	</g>
	<g>
		<g class="st9">
			<path class="st10" d="M526.6,243.9h0.9l0.8,6.6h-0.8l-0.3-3.8c-0.1-0.7-0.1-1.4-0.2-2.1h0c-0.3,0.8-0.7,1.4-1,2.1l-1.9,3.8H523
				L526.6,243.9z M524.8,247.8h2.9l-0.1,0.6h-2.9L524.8,247.8z"/>
			<path class="st10" d="M531.5,244.5h-1.9l0.1-0.7h4.6l-0.1,0.7h-1.9l-1.2,5.9h-0.8L531.5,244.5z"/>
			<path class="st10" d="M534.3,247.9c0-2.1,1.3-4.2,3.5-4.2c0.8,0,1.3,0.4,1.7,1l-0.5,0.4c-0.3-0.4-0.6-0.7-1.1-0.7
				c-1.6,0-2.6,1.8-2.6,3.4c0,1.2,0.5,2.1,1.7,2.1c0.5,0,0.9-0.2,1.1-0.4l0.4-1.8H537l0.1-0.6h2.1l-0.6,2.8
				c-0.5,0.4-1.1,0.7-1.9,0.7C535.2,250.5,534.3,249.5,534.3,247.9z"/>
		</g>
	</g>
	<g>
		<g class="st9">
			<path class="st10" d="M545.7,244h0.9l0.8,6.6h-0.8l-0.3-3.8c-0.1-0.7-0.1-1.4-0.2-2.1h0c-0.3,0.8-0.7,1.4-1,2.1l-1.9,3.8h-0.9
				L545.7,244z M543.9,247.9h2.9l-0.1,0.6h-2.9L543.9,247.9z"/>
			<path class="st10" d="M550.6,244.6h-1.9l0.1-0.7h4.6l-0.1,0.7h-1.9l-1.2,5.9h-0.8L550.6,244.6z"/>
			<path class="st10" d="M553.5,248c0-2.1,1.3-4.2,3.5-4.2c0.8,0,1.3,0.4,1.7,1l-0.5,0.4c-0.3-0.4-0.6-0.7-1.1-0.7
				c-1.6,0-2.6,1.8-2.6,3.4c0,1.2,0.5,2.1,1.7,2.1c0.5,0,0.9-0.2,1.1-0.4l0.4-1.8h-1.4l0.1-0.6h2.1l-0.6,2.8
				c-0.5,0.4-1.1,0.7-1.9,0.7C554.3,250.7,553.5,249.6,553.5,248z"/>
		</g>
	</g>
	<g>
		<g class="st9">
			<path class="st10" d="M472.3,254.2h0.9l0.8,6.6h-0.8l-0.3-3.8c-0.1-0.7-0.1-1.4-0.2-2.1h0c-0.3,0.8-0.7,1.4-1,2.1l-1.9,3.8h-0.9
				L472.3,254.2z M470.4,258.1h2.9l-0.1,0.6h-2.9L470.4,258.1z"/>
			<path class="st10" d="M477.2,254.8h-1.9l0.1-0.7h4.6l-0.1,0.7h-1.9l-1.2,5.9H476L477.2,254.8z"/>
			<path class="st10" d="M480,258.2c0-2.1,1.3-4.2,3.5-4.2c0.8,0,1.3,0.4,1.7,1l-0.5,0.4c-0.3-0.4-0.6-0.7-1.1-0.7
				c-1.6,0-2.6,1.8-2.6,3.4c0,1.2,0.5,2.1,1.7,2.1c0.5,0,0.9-0.2,1.1-0.4l0.4-1.8h-1.4l0.1-0.6h2.1l-0.6,2.8
				c-0.5,0.4-1.1,0.7-1.9,0.7C480.8,260.9,480,259.8,480,258.2z"/>
		</g>
	</g>
	<g>
		<g class="st9">
			<path class="st10" d="M492.3,254.3h0.9l0.8,6.6h-0.8l-0.3-3.8c-0.1-0.7-0.1-1.4-0.2-2.1h0c-0.3,0.8-0.7,1.4-1,2.1l-1.9,3.8h-0.9
				L492.3,254.3z M490.5,258.2h2.9l-0.1,0.6h-2.9L490.5,258.2z"/>
			<path class="st10" d="M497.2,255h-1.9l0.1-0.7h4.6l-0.1,0.7H498l-1.2,5.9h-0.8L497.2,255z"/>
			<path class="st10" d="M500.1,258.3c0-2.1,1.3-4.2,3.5-4.2c0.8,0,1.3,0.4,1.7,1l-0.5,0.4c-0.3-0.4-0.6-0.7-1.1-0.7
				c-1.6,0-2.6,1.8-2.6,3.4c0,1.2,0.5,2.1,1.7,2.1c0.5,0,0.9-0.2,1.1-0.4l0.4-1.8h-1.4l0.1-0.6h2.1l-0.6,2.8
				c-0.5,0.4-1.1,0.7-1.9,0.7C500.9,261,500.1,259.9,500.1,258.3z"/>
		</g>
	</g>
	<g>
		<g class="st9">
			<path class="st10" d="M512,254.3h0.9l0.8,6.6h-0.8l-0.3-3.8c-0.1-0.7-0.1-1.4-0.2-2.1h0c-0.3,0.8-0.7,1.4-1,2.1l-1.9,3.8h-0.9
				L512,254.3z M510.2,258.2h2.9l-0.1,0.6h-2.9L510.2,258.2z"/>
			<path class="st10" d="M516.9,255H515l0.1-0.7h4.6l-0.1,0.7h-1.9l-1.2,5.9h-0.8L516.9,255z"/>
			<path class="st10" d="M519.8,258.3c0-2.1,1.3-4.2,3.5-4.2c0.8,0,1.3,0.4,1.7,1l-0.5,0.4c-0.3-0.4-0.6-0.7-1.1-0.7
				c-1.6,0-2.6,1.8-2.6,3.4c0,1.2,0.5,2.1,1.7,2.1c0.5,0,0.9-0.2,1.1-0.4l0.4-1.8h-1.4l0.1-0.6h2.1l-0.6,2.8
				c-0.5,0.4-1.1,0.7-1.9,0.7C520.6,261,519.8,259.9,519.8,258.3z"/>
		</g>
	</g>
	<g>
		<g class="st9">
			<path class="st10" d="M531.1,254.4h0.9l0.8,6.6H532l-0.3-3.8c-0.1-0.7-0.1-1.4-0.2-2.1h0c-0.3,0.8-0.7,1.4-1,2.1l-1.9,3.8h-0.9
				L531.1,254.4z M529.3,258.3h2.9l-0.1,0.6h-2.9L529.3,258.3z"/>
			<path class="st10" d="M536,255.1h-1.9l0.1-0.7h4.6l-0.1,0.7h-1.9l-1.2,5.9h-0.8L536,255.1z"/>
			<path class="st10" d="M538.9,258.5c0-2.1,1.3-4.2,3.5-4.2c0.8,0,1.3,0.4,1.7,1l-0.5,0.4c-0.3-0.4-0.6-0.7-1.1-0.7
				c-1.6,0-2.6,1.8-2.6,3.4c0,1.2,0.5,2.1,1.7,2.1c0.5,0,0.9-0.2,1.1-0.4l0.4-1.8h-1.4l0.1-0.6h2.1l-0.6,2.8
				c-0.5,0.4-1.1,0.7-1.9,0.7C539.7,261.1,538.9,260,538.9,258.5z"/>
		</g>
	</g>
	<g>
		<g class="st9">
			<path class="st10" d="M568.8,212.9h0.9l0.8,6.6h-0.8l-0.3-3.8c-0.1-0.7-0.1-1.4-0.2-2.1h0c-0.3,0.8-0.7,1.4-1,2.1l-1.9,3.8h-0.9
				L568.8,212.9z M567,216.8h2.9l-0.1,0.6h-2.9L567,216.8z"/>
			<path class="st10" d="M573.9,212.9h0.9l0.8,6.6h-0.8l-0.3-3.8c-0.1-0.7-0.1-1.4-0.2-2.1h0c-0.3,0.8-0.7,1.4-1,2.1l-1.9,3.8h-0.9
				L573.9,212.9z M572.1,216.8h2.9l-0.1,0.6h-2.9L572.1,216.8z"/>
			<path class="st10" d="M576.5,216.9c0-2.1,1.4-4.2,3.4-4.2c0.7,0,1.3,0.4,1.6,1l-0.5,0.4c-0.3-0.4-0.6-0.7-1.1-0.7
				c-1.6,0-2.5,1.8-2.5,3.4c0,1.2,0.5,2,1.7,2c0.5,0,1-0.2,1.4-0.6l0.4,0.5c-0.5,0.4-1.1,0.8-1.9,0.8
				C577.4,219.5,576.5,218.5,576.5,216.9z"/>
		</g>
	</g>
	<g>
		<g class="st9">
			<path class="st10" d="M588.4,212.9h0.9l0.8,6.6h-0.8l-0.3-3.8c-0.1-0.7-0.1-1.4-0.2-2.1h0c-0.3,0.8-0.7,1.4-1,2.1l-1.9,3.8h-0.9
				L588.4,212.9z M586.6,216.8h2.9l-0.1,0.6h-2.9L586.6,216.8z"/>
			<path class="st10" d="M593.5,212.9h0.9l0.8,6.6h-0.8l-0.3-3.8c-0.1-0.7-0.1-1.4-0.2-2.1h0c-0.3,0.8-0.7,1.4-1,2.1l-1.9,3.8H590
				L593.5,212.9z M591.7,216.8h2.9l-0.1,0.6h-2.9L591.7,216.8z"/>
			<path class="st10" d="M596.2,216.9c0-2.1,1.4-4.2,3.4-4.2c0.7,0,1.3,0.4,1.6,1l-0.5,0.4c-0.3-0.4-0.6-0.7-1.1-0.7
				c-1.6,0-2.5,1.8-2.5,3.4c0,1.2,0.5,2,1.7,2c0.5,0,1-0.2,1.4-0.6l0.4,0.5c-0.5,0.4-1.1,0.8-1.9,0.8
				C597,219.5,596.2,218.5,596.2,216.9z"/>
		</g>
	</g>
	<g>
		<g class="st9">
			<path class="st10" d="M607.5,212.9h0.9l0.8,6.6h-0.8l-0.3-3.8c-0.1-0.7-0.1-1.4-0.2-2.1h0c-0.3,0.8-0.7,1.4-1,2.1l-1.9,3.8H604
				L607.5,212.9z M605.7,216.8h2.9l-0.1,0.6h-2.9L605.7,216.8z"/>
			<path class="st10" d="M612.6,212.9h0.9l0.8,6.6h-0.8l-0.3-3.8c-0.1-0.7-0.1-1.4-0.2-2.1h0c-0.3,0.8-0.7,1.4-1,2.1l-1.9,3.8h-0.9
				L612.6,212.9z M610.8,216.8h2.9l-0.1,0.6h-2.9L610.8,216.8z"/>
			<path class="st10" d="M615.3,216.9c0-2.1,1.4-4.2,3.4-4.2c0.7,0,1.3,0.4,1.6,1l-0.5,0.4c-0.3-0.4-0.6-0.7-1.1-0.7
				c-1.6,0-2.5,1.8-2.5,3.4c0,1.2,0.5,2,1.7,2c0.5,0,1-0.2,1.4-0.6l0.4,0.5c-0.5,0.4-1.1,0.8-1.9,0.8
				C616.1,219.5,615.3,218.5,615.3,216.9z"/>
		</g>
	</g>
	<g>
		<g class="st9">
			<path class="st10" d="M560.6,223.3h0.9l0.8,6.6h-0.8l-0.3-3.8c-0.1-0.7-0.1-1.4-0.2-2.1h0c-0.3,0.8-0.7,1.4-1,2.1l-1.9,3.8H557
				L560.6,223.3z M558.7,227.2h2.9l-0.1,0.6h-2.9L558.7,227.2z"/>
			<path class="st10" d="M565.7,223.3h0.9l0.8,6.6h-0.8l-0.3-3.8c-0.1-0.7-0.1-1.4-0.2-2.1h0c-0.3,0.8-0.7,1.4-1,2.1l-1.9,3.8h-0.9
				L565.7,223.3z M563.8,227.2h2.9l-0.1,0.6h-2.9L563.8,227.2z"/>
			<path class="st10" d="M568.3,227.4c0-2.1,1.4-4.2,3.4-4.2c0.7,0,1.3,0.4,1.6,1l-0.5,0.4c-0.3-0.4-0.6-0.7-1.1-0.7
				c-1.6,0-2.5,1.8-2.5,3.4c0,1.2,0.5,2,1.7,2c0.5,0,1-0.2,1.4-0.6l0.4,0.5c-0.5,0.4-1.1,0.8-1.9,0.8
				C569.1,230,568.3,228.9,568.3,227.4z"/>
		</g>
	</g>
	<g>
		<g class="st9">
			<path class="st10" d="M580,223.3h0.9l0.8,6.6h-0.8l-0.3-3.8c-0.1-0.7-0.1-1.4-0.2-2.1h0c-0.3,0.8-0.7,1.4-1,2.1l-1.9,3.8h-0.9
				L580,223.3z M578.2,227.2h2.9l-0.1,0.6h-2.9L578.2,227.2z"/>
			<path class="st10" d="M585.1,223.3h0.9l0.8,6.6H586l-0.3-3.8c-0.1-0.7-0.1-1.4-0.2-2.1h0c-0.3,0.8-0.7,1.4-1,2.1l-1.9,3.8h-0.9
				L585.1,223.3z M583.3,227.2h2.9l-0.1,0.6h-2.9L583.3,227.2z"/>
			<path class="st10" d="M587.8,227.4c0-2.1,1.4-4.2,3.4-4.2c0.7,0,1.3,0.4,1.6,1l-0.5,0.4c-0.3-0.4-0.6-0.7-1.1-0.7
				c-1.6,0-2.5,1.8-2.5,3.4c0,1.2,0.5,2,1.7,2c0.5,0,1-0.2,1.4-0.6l0.4,0.5c-0.5,0.4-1.1,0.8-1.9,0.8
				C588.6,230,587.8,228.9,587.8,227.4z"/>
		</g>
	</g>
	<g>
		<g class="st9">
			<path class="st10" d="M599.5,223.5h0.9l0.8,6.6h-0.8l-0.3-3.8c-0.1-0.7-0.1-1.4-0.2-2.1h0c-0.3,0.8-0.7,1.4-1,2.1l-1.9,3.8h-0.9
				L599.5,223.5z M597.7,227.4h2.9l-0.1,0.6h-2.9L597.7,227.4z"/>
			<path class="st10" d="M604.6,223.5h0.9l0.8,6.6h-0.8l-0.3-3.8c-0.1-0.7-0.1-1.4-0.2-2.1h0c-0.3,0.8-0.7,1.4-1,2.1l-1.9,3.8H601
				L604.6,223.5z M602.8,227.4h2.9l-0.1,0.6h-2.9L602.8,227.4z"/>
			<path class="st10" d="M607.2,227.5c0-2.1,1.4-4.2,3.4-4.2c0.7,0,1.3,0.4,1.6,1l-0.5,0.4c-0.3-0.4-0.6-0.7-1.1-0.7
				c-1.6,0-2.5,1.8-2.5,3.4c0,1.2,0.5,2,1.7,2c0.5,0,1-0.2,1.4-0.6l0.4,0.5c-0.5,0.4-1.1,0.8-1.9,0.8
				C608,230.1,607.2,229.1,607.2,227.5z"/>
		</g>
	</g>
	<g>
		<g class="st9">
			<path class="st10" d="M564.3,233.7h0.9l0.8,6.6h-0.8l-0.3-3.8c-0.1-0.7-0.1-1.4-0.2-2.1h0c-0.3,0.8-0.7,1.4-1,2.1l-1.9,3.8h-0.9
				L564.3,233.7z M562.5,237.6h2.9l-0.1,0.6h-2.9L562.5,237.6z"/>
			<path class="st10" d="M569.4,233.7h0.9l0.8,6.6h-0.8l-0.3-3.8c-0.1-0.7-0.1-1.4-0.2-2.1h0c-0.3,0.8-0.7,1.4-1,2.1l-1.9,3.8h-0.9
				L569.4,233.7z M567.6,237.6h2.9l-0.1,0.6h-2.9L567.6,237.6z"/>
			<path class="st10" d="M572.1,237.7c0-2.1,1.4-4.2,3.4-4.2c0.7,0,1.3,0.4,1.6,1l-0.5,0.4c-0.3-0.4-0.6-0.7-1.1-0.7
				c-1.6,0-2.5,1.8-2.5,3.4c0,1.2,0.5,2,1.7,2c0.5,0,1-0.2,1.4-0.6l0.4,0.5c-0.5,0.4-1.1,0.8-1.9,0.8
				C572.9,240.4,572.1,239.3,572.1,237.7z"/>
		</g>
	</g>
	<g>
		<g class="st9">
			<path class="st10" d="M584.4,233.7h0.9l0.8,6.6h-0.8l-0.3-3.8c-0.1-0.7-0.1-1.4-0.2-2.1h0c-0.3,0.8-0.7,1.4-1,2.1l-1.9,3.8h-0.9
				L584.4,233.7z M582.5,237.6h2.9l-0.1,0.6h-2.9L582.5,237.6z"/>
			<path class="st10" d="M589.5,233.7h0.9l0.8,6.6h-0.8l-0.3-3.8c-0.1-0.7-0.1-1.4-0.2-2.1h0c-0.3,0.8-0.7,1.4-1,2.1l-1.9,3.8h-0.9
				L589.5,233.7z M587.6,237.6h2.9l-0.1,0.6h-2.9L587.6,237.6z"/>
			<path class="st10" d="M592.1,237.7c0-2.1,1.4-4.2,3.4-4.2c0.7,0,1.3,0.4,1.6,1l-0.5,0.4c-0.3-0.4-0.6-0.7-1.1-0.7
				c-1.6,0-2.5,1.8-2.5,3.4c0,1.2,0.5,2,1.7,2c0.5,0,1-0.2,1.4-0.6l0.4,0.5c-0.5,0.4-1.1,0.8-1.9,0.8
				C592.9,240.4,592.1,239.3,592.1,237.7z"/>
		</g>
	</g>
	<g>
		<g class="st9">
			<path class="st10" d="M604,233.7h0.9l0.8,6.6h-0.8l-0.3-3.8c-0.1-0.7-0.1-1.4-0.2-2.1h0c-0.3,0.8-0.7,1.4-1,2.1l-1.9,3.8h-0.9
				L604,233.7z M602.2,237.6h2.9l-0.1,0.6H602L602.2,237.6z"/>
			<path class="st10" d="M609.1,233.7h0.9l0.8,6.6h-0.8l-0.3-3.8c-0.1-0.7-0.1-1.4-0.2-2.1h0c-0.3,0.8-0.7,1.4-1,2.1l-1.9,3.8h-0.9
				L609.1,233.7z M607.3,237.6h2.9l-0.1,0.6h-2.9L607.3,237.6z"/>
			<path class="st10" d="M611.7,237.7c0-2.1,1.4-4.2,3.4-4.2c0.7,0,1.3,0.4,1.6,1l-0.5,0.4c-0.3-0.4-0.6-0.7-1.1-0.7
				c-1.6,0-2.5,1.8-2.5,3.4c0,1.2,0.5,2,1.7,2c0.5,0,1-0.2,1.4-0.6l0.4,0.5c-0.5,0.4-1.1,0.8-1.9,0.8
				C612.6,240.4,611.7,239.3,611.7,237.7z"/>
		</g>
	</g>
	<g>
		<g class="st9">
			<path class="st10" d="M571.1,244.7h0.9l0.8,6.6H572l-0.3-3.8c-0.1-0.7-0.1-1.4-0.2-2.1h0c-0.3,0.8-0.7,1.4-1,2.1l-1.9,3.8h-0.9
				L571.1,244.7z M569.3,248.6h2.9l-0.1,0.6h-2.9L569.3,248.6z"/>
			<path class="st10" d="M576.2,244.7h0.9l0.8,6.6h-0.8l-0.3-3.8c-0.1-0.7-0.1-1.4-0.2-2.1h0c-0.3,0.8-0.7,1.4-1,2.1l-1.9,3.8h-0.9
				L576.2,244.7z M574.4,248.6h2.9l-0.1,0.6h-2.9L574.4,248.6z"/>
			<path class="st10" d="M578.9,248.8c0-2.1,1.4-4.2,3.4-4.2c0.7,0,1.3,0.4,1.6,1l-0.5,0.4c-0.3-0.4-0.6-0.7-1.1-0.7
				c-1.6,0-2.5,1.8-2.5,3.4c0,1.2,0.5,2,1.7,2c0.5,0,1-0.2,1.4-0.6l0.4,0.5c-0.5,0.4-1.1,0.8-1.9,0.8
				C579.7,251.4,578.9,250.3,578.9,248.8z"/>
		</g>
	</g>
	<g>
		<g class="st9">
			<path class="st10" d="M591.2,244.7h0.9l0.8,6.6H592l-0.3-3.8c-0.1-0.7-0.1-1.4-0.2-2.1h0c-0.3,0.8-0.7,1.4-1,2.1l-1.9,3.8h-0.9
				L591.2,244.7z M589.3,248.6h2.9l-0.1,0.6h-2.9L589.3,248.6z"/>
			<path class="st10" d="M596.3,244.7h0.9l0.8,6.6h-0.8l-0.3-3.8c-0.1-0.7-0.1-1.4-0.2-2.1h0c-0.3,0.8-0.7,1.4-1,2.1l-1.9,3.8h-0.9
				L596.3,244.7z M594.4,248.6h2.9l-0.1,0.6h-2.9L594.4,248.6z"/>
			<path class="st10" d="M598.9,248.8c0-2.1,1.4-4.2,3.4-4.2c0.7,0,1.3,0.4,1.6,1l-0.5,0.4c-0.3-0.4-0.6-0.7-1.1-0.7
				c-1.6,0-2.5,1.8-2.5,3.4c0,1.2,0.5,2,1.7,2c0.5,0,1-0.2,1.4-0.6l0.4,0.5c-0.5,0.4-1.1,0.8-1.9,0.8
				C599.7,251.4,598.9,250.3,598.9,248.8z"/>
		</g>
	</g>
	<g>
		<g class="st9">
			<path class="st10" d="M612.3,244.7h0.9l0.8,6.6h-0.8l-0.3-3.8c-0.1-0.7-0.1-1.4-0.2-2.1h0c-0.3,0.8-0.7,1.4-1,2.1l-1.9,3.8h-0.9
				L612.3,244.7z M610.5,248.6h2.9l-0.1,0.6h-2.9L610.5,248.6z"/>
			<path class="st10" d="M617.4,244.7h0.9l0.8,6.6h-0.8l-0.3-3.8c-0.1-0.7-0.1-1.4-0.2-2.1h0c-0.3,0.8-0.7,1.4-1,2.1l-1.9,3.8h-0.9
				L617.4,244.7z M615.6,248.6h2.9l-0.1,0.6h-2.9L615.6,248.6z"/>
			<path class="st10" d="M620.1,248.8c0-2.1,1.4-4.2,3.4-4.2c0.7,0,1.3,0.4,1.6,1l-0.5,0.4c-0.3-0.4-0.6-0.7-1.1-0.7
				c-1.6,0-2.5,1.8-2.5,3.4c0,1.2,0.5,2,1.7,2c0.5,0,1-0.2,1.4-0.6l0.4,0.5c-0.5,0.4-1.1,0.8-1.9,0.8
				C620.9,251.4,620.1,250.3,620.1,248.8z"/>
		</g>
	</g>
	<g>
		<g class="st9">
			<path class="st10" d="M561.2,255.5h0.9l0.8,6.6H562l-0.3-3.8c-0.1-0.7-0.1-1.4-0.2-2.1h0c-0.3,0.8-0.7,1.4-1,2.1l-1.9,3.8h-0.9
				L561.2,255.5z M559.3,259.4h2.9l-0.1,0.6h-2.9L559.3,259.4z"/>
			<path class="st10" d="M566.3,255.5h0.9l0.8,6.6h-0.8l-0.3-3.8c-0.1-0.7-0.1-1.4-0.2-2.1h0c-0.3,0.8-0.7,1.4-1,2.1l-1.9,3.8h-0.9
				L566.3,255.5z M564.4,259.4h2.9l-0.1,0.6h-2.9L564.4,259.4z"/>
			<path class="st10" d="M568.9,259.6c0-2.1,1.4-4.2,3.4-4.2c0.7,0,1.3,0.4,1.6,1l-0.5,0.4c-0.3-0.4-0.6-0.7-1.1-0.7
				c-1.6,0-2.5,1.8-2.5,3.4c0,1.2,0.5,2,1.7,2c0.5,0,1-0.2,1.4-0.6l0.4,0.5c-0.5,0.4-1.1,0.8-1.9,0.8
				C569.7,262.2,568.9,261.1,568.9,259.6z"/>
		</g>
	</g>
	<g>
		<g class="st9">
			<path class="st10" d="M580.6,255.4h0.9l0.8,6.6h-0.8l-0.3-3.8c-0.1-0.7-0.1-1.4-0.2-2.1h0c-0.3,0.8-0.7,1.4-1,2.1l-1.9,3.8h-0.9
				L580.6,255.4z M578.8,259.4h2.9l-0.1,0.6h-2.9L578.8,259.4z"/>
			<path class="st10" d="M585.7,255.4h0.9l0.8,6.6h-0.8l-0.3-3.8c-0.1-0.7-0.1-1.4-0.2-2.1h0c-0.3,0.8-0.7,1.4-1,2.1L583,262h-0.9
				L585.7,255.4z M583.9,259.4h2.9l-0.1,0.6h-2.9L583.9,259.4z"/>
			<path class="st10" d="M588.4,259.5c0-2.1,1.4-4.2,3.4-4.2c0.7,0,1.3,0.4,1.6,1l-0.5,0.4c-0.3-0.4-0.6-0.7-1.1-0.7
				c-1.6,0-2.5,1.8-2.5,3.4c0,1.2,0.5,2,1.7,2c0.5,0,1-0.2,1.4-0.6l0.4,0.5c-0.5,0.4-1.1,0.8-1.9,0.8
				C589.2,262.1,588.4,261.1,588.4,259.5z"/>
		</g>
	</g>
	<g>
		<g class="st9">
			<path class="st10" d="M599.5,255.4h0.9l0.8,6.6h-0.8l-0.3-3.8c-0.1-0.7-0.1-1.4-0.2-2.1h0c-0.3,0.8-0.7,1.4-1,2.1l-1.9,3.8H596
				L599.5,255.4z M597.7,259.3h2.9l-0.1,0.6h-2.9L597.7,259.3z"/>
			<path class="st10" d="M604.6,255.4h0.9l0.8,6.6h-0.8l-0.3-3.8c-0.1-0.7-0.1-1.4-0.2-2.1h0c-0.3,0.8-0.7,1.4-1,2.1l-1.9,3.8h-0.9
				L604.6,255.4z M602.8,259.3h2.9l-0.1,0.6h-2.9L602.8,259.3z"/>
			<path class="st10" d="M607.3,259.4c0-2.1,1.4-4.2,3.4-4.2c0.7,0,1.3,0.4,1.6,1l-0.5,0.4c-0.3-0.4-0.6-0.7-1.1-0.7
				c-1.6,0-2.5,1.8-2.5,3.4c0,1.2,0.5,2,1.7,2c0.5,0,1-0.2,1.4-0.6l0.4,0.5c-0.5,0.4-1.1,0.8-1.9,0.8
				C608.1,262.1,607.3,261,607.3,259.4z"/>
		</g>
	</g>
	<g>
		<g class="st9">
			<path class="st10" d="M626.5,212.9h0.9l0.8,6.6h-0.8l-0.3-3.8c-0.1-0.7-0.1-1.4-0.2-2.1h0c-0.3,0.8-0.7,1.4-1,2.1l-1.9,3.8h-0.9
				L626.5,212.9z M624.7,216.8h2.9l-0.1,0.6h-2.9L624.7,216.8z"/>
			<path class="st10" d="M631.6,212.9h0.9l0.8,6.6h-0.8l-0.3-3.8c-0.1-0.7-0.1-1.4-0.2-2.1h0c-0.3,0.8-0.7,1.4-1,2.1l-1.9,3.8H628
				L631.6,212.9z M629.8,216.8h2.9l-0.1,0.6h-2.9L629.8,216.8z"/>
			<path class="st10" d="M634.2,216.9c0-2.1,1.4-4.2,3.4-4.2c0.7,0,1.3,0.4,1.6,1l-0.5,0.4c-0.3-0.4-0.6-0.7-1.1-0.7
				c-1.6,0-2.5,1.8-2.5,3.4c0,1.2,0.5,2,1.7,2c0.5,0,1-0.2,1.4-0.6l0.4,0.5c-0.5,0.4-1.1,0.8-1.9,0.8
				C635,219.5,634.2,218.5,634.2,216.9z"/>
		</g>
	</g>
	<g>
		<g class="st9">
			<path class="st10" d="M617.8,223.2h0.9l0.8,6.6h-0.8l-0.3-3.8c-0.1-0.7-0.1-1.4-0.2-2.1h0c-0.3,0.8-0.7,1.4-1,2.1l-1.9,3.8h-0.9
				L617.8,223.2z M615.9,227.1h2.9l-0.1,0.6h-2.9L615.9,227.1z"/>
			<path class="st10" d="M622.9,223.2h0.9l0.8,6.6h-0.8l-0.3-3.8c-0.1-0.7-0.1-1.4-0.2-2.1h0c-0.3,0.8-0.7,1.4-1,2.1l-1.9,3.8h-0.9
				L622.9,223.2z M621,227.1h2.9l-0.1,0.6h-2.9L621,227.1z"/>
			<path class="st10" d="M625.5,227.2c0-2.1,1.4-4.2,3.4-4.2c0.7,0,1.3,0.4,1.6,1l-0.5,0.4c-0.3-0.4-0.6-0.7-1.1-0.7
				c-1.6,0-2.5,1.8-2.5,3.4c0,1.2,0.5,2,1.7,2c0.5,0,1-0.2,1.4-0.6l0.4,0.5c-0.5,0.4-1.1,0.8-1.9,0.8
				C626.3,229.9,625.5,228.8,625.5,227.2z"/>
		</g>
	</g>
	<g>
		<g class="st9">
			<path class="st10" d="M624.2,233.3h0.9l0.8,6.6h-0.8l-0.3-3.8c-0.1-0.7-0.1-1.4-0.2-2.1h0c-0.3,0.8-0.7,1.4-1,2.1l-1.9,3.8h-0.9
				L624.2,233.3z M622.4,237.2h2.9l-0.1,0.6h-2.9L622.4,237.2z"/>
			<path class="st10" d="M629.3,233.3h0.9l0.8,6.6h-0.8l-0.3-3.8c-0.1-0.7-0.1-1.4-0.2-2.1h0c-0.3,0.8-0.7,1.4-1,2.1l-1.9,3.8h-0.9
				L629.3,233.3z M627.5,237.2h2.9l-0.1,0.6h-2.9L627.5,237.2z"/>
			<path class="st10" d="M632,237.4c0-2.1,1.4-4.2,3.4-4.2c0.7,0,1.3,0.4,1.6,1l-0.5,0.4c-0.3-0.4-0.6-0.7-1.1-0.7
				c-1.6,0-2.5,1.8-2.5,3.4c0,1.2,0.5,2,1.7,2c0.5,0,1-0.2,1.4-0.6l0.4,0.5c-0.5,0.4-1.1,0.8-1.9,0.8C632.8,240,632,238.9,632,237.4
				z"/>
		</g>
	</g>
	<g>
		<g class="st9">
			<path class="st10" d="M620.3,255.4h0.9l0.8,6.6h-0.8l-0.3-3.8c-0.1-0.7-0.1-1.4-0.2-2.1h0c-0.3,0.8-0.7,1.4-1,2.1l-1.9,3.8h-0.9
				L620.3,255.4z M618.5,259.4h2.9l-0.1,0.6h-2.9L618.5,259.4z"/>
			<path class="st10" d="M625.4,255.4h0.9l0.8,6.6h-0.8l-0.3-3.8c-0.1-0.7-0.1-1.4-0.2-2.1h0c-0.3,0.8-0.7,1.4-1,2.1l-1.9,3.8h-0.9
				L625.4,255.4z M623.6,259.4h2.9l-0.1,0.6h-2.9L623.6,259.4z"/>
			<path class="st10" d="M628.1,259.5c0-2.1,1.4-4.2,3.4-4.2c0.7,0,1.3,0.4,1.6,1l-0.5,0.4c-0.3-0.4-0.6-0.7-1.1-0.7
				c-1.6,0-2.5,1.8-2.5,3.4c0,1.2,0.5,2,1.7,2c0.5,0,1-0.2,1.4-0.6l0.4,0.5c-0.5,0.4-1.1,0.8-1.9,0.8
				C628.9,262.1,628.1,261.1,628.1,259.5z"/>
		</g>
	</g>
	<g>
		<g class="st9">
			<path class="st10" d="M649.8,216.9c0-2.1,1.3-4.2,3.5-4.2c0.8,0,1.3,0.4,1.7,1l-0.5,0.4c-0.3-0.4-0.6-0.7-1.1-0.7
				c-1.6,0-2.6,1.8-2.6,3.4c0,1.2,0.5,2.1,1.7,2.1c0.5,0,0.9-0.2,1.1-0.4l0.4-1.8h-1.4l0.1-0.6h2.1l-0.6,2.8
				c-0.5,0.4-1.1,0.7-1.9,0.7C650.6,219.6,649.8,218.5,649.8,216.9z"/>
			<path class="st10" d="M657.9,213.6H656l0.1-0.7h4.6l-0.1,0.7h-1.9l-1.2,5.9h-0.8L657.9,213.6z"/>
			<path class="st10" d="M660.7,216.9c0-2.1,1.4-4.2,3.4-4.2c0.7,0,1.3,0.4,1.6,1l-0.5,0.4c-0.3-0.4-0.6-0.7-1.1-0.7
				c-1.6,0-2.5,1.8-2.5,3.4c0,1.2,0.5,2,1.7,2c0.5,0,1-0.2,1.4-0.6l0.4,0.5c-0.5,0.4-1.1,0.8-1.9,0.8
				C661.6,219.6,660.7,218.5,660.7,216.9z"/>
		</g>
	</g>
	<g>
		<g class="st9">
			<path class="st10" d="M668.1,216.9c0-2.1,1.3-4.2,3.5-4.2c0.8,0,1.3,0.4,1.7,1l-0.5,0.4c-0.3-0.4-0.6-0.7-1.1-0.7
				c-1.6,0-2.6,1.8-2.6,3.4c0,1.2,0.5,2.1,1.7,2.1c0.5,0,0.9-0.2,1.1-0.4l0.4-1.8h-1.4l0.1-0.6h2.1l-0.6,2.8
				c-0.5,0.4-1.1,0.7-1.9,0.7C668.9,219.6,668.1,218.5,668.1,216.9z"/>
			<path class="st10" d="M676.2,213.6h-1.9l0.1-0.7h4.6l-0.1,0.7H677l-1.2,5.9h-0.8L676.2,213.6z"/>
			<path class="st10" d="M679.1,216.9c0-2.1,1.4-4.2,3.4-4.2c0.7,0,1.3,0.4,1.6,1l-0.5,0.4c-0.3-0.4-0.6-0.7-1.1-0.7
				c-1.6,0-2.5,1.8-2.5,3.4c0,1.2,0.5,2,1.7,2c0.5,0,1-0.2,1.4-0.6l0.4,0.5c-0.5,0.4-1.1,0.8-1.9,0.8
				C679.9,219.6,679.1,218.5,679.1,216.9z"/>
		</g>
	</g>
	<g>
		<g class="st9">
			<path class="st10" d="M686.8,217.1c0-2.1,1.3-4.2,3.5-4.2c0.8,0,1.3,0.4,1.7,1l-0.5,0.4c-0.3-0.4-0.6-0.7-1.1-0.7
				c-1.6,0-2.6,1.8-2.6,3.4c0,1.2,0.5,2.1,1.7,2.1c0.5,0,0.9-0.2,1.1-0.4l0.4-1.8h-1.4l0.1-0.6h2.1L691,219
				c-0.5,0.4-1.1,0.7-1.9,0.7C687.6,219.7,686.8,218.7,686.8,217.1z"/>
			<path class="st10" d="M694.9,213.7H693l0.1-0.7h4.6l-0.1,0.7h-1.9l-1.2,5.9h-0.8L694.9,213.7z"/>
			<path class="st10" d="M697.7,217.1c0-2.1,1.4-4.2,3.4-4.2c0.7,0,1.3,0.4,1.6,1l-0.5,0.4c-0.3-0.4-0.6-0.7-1.1-0.7
				c-1.6,0-2.5,1.8-2.5,3.4c0,1.2,0.5,2,1.7,2c0.5,0,1-0.2,1.4-0.6l0.4,0.5c-0.5,0.4-1.1,0.8-1.9,0.8
				C698.6,219.7,697.7,218.6,697.7,217.1z"/>
		</g>
	</g>
	<g>
		<g class="st9">
			<path class="st10" d="M681.5,259.5c0-2.1,1.3-4.2,3.5-4.2c0.8,0,1.3,0.4,1.7,1l-0.5,0.4c-0.3-0.4-0.6-0.7-1.1-0.7
				c-1.6,0-2.6,1.8-2.6,3.4c0,1.2,0.5,2.1,1.7,2.1c0.5,0,0.9-0.2,1.1-0.4l0.4-1.8h-1.4l0.1-0.6h2.1l-0.6,2.8
				c-0.5,0.4-1.1,0.7-1.9,0.7C682.3,262.1,681.5,261.1,681.5,259.5z"/>
			<path class="st10" d="M689.6,256.1h-1.9l0.1-0.7h4.6l-0.1,0.7h-1.9l-1.2,5.9h-0.8L689.6,256.1z"/>
			<path class="st10" d="M692.5,259.5c0-2.1,1.4-4.2,3.4-4.2c0.7,0,1.3,0.4,1.6,1l-0.5,0.4c-0.3-0.4-0.6-0.7-1.1-0.7
				c-1.6,0-2.5,1.8-2.5,3.4c0,1.2,0.5,2,1.7,2c0.5,0,1-0.2,1.4-0.6l0.4,0.5c-0.5,0.4-1.1,0.8-1.9,0.8
				C693.3,262.1,692.5,261.1,692.5,259.5z"/>
		</g>
	</g>
	<g>
		<g class="st9">
			<path class="st10" d="M674.5,248.6c0-2.1,1.3-4.2,3.5-4.2c0.8,0,1.3,0.4,1.7,1l-0.5,0.4c-0.3-0.4-0.6-0.7-1.1-0.7
				c-1.6,0-2.6,1.8-2.6,3.4c0,1.2,0.5,2.1,1.7,2.1c0.5,0,0.9-0.2,1.1-0.4l0.4-1.8h-1.4l0.1-0.6h2.1l-0.6,2.8
				c-0.5,0.4-1.1,0.7-1.9,0.7C675.3,251.3,674.5,250.2,674.5,248.6z"/>
			<path class="st10" d="M682.6,245.3h-1.9l0.1-0.7h4.6l-0.1,0.7h-1.9l-1.2,5.9h-0.8L682.6,245.3z"/>
			<path class="st10" d="M685.4,248.6c0-2.1,1.4-4.2,3.4-4.2c0.7,0,1.3,0.4,1.6,1l-0.5,0.4c-0.3-0.4-0.6-0.7-1.1-0.7
				c-1.6,0-2.5,1.8-2.5,3.4c0,1.2,0.5,2,1.7,2c0.5,0,1-0.2,1.4-0.6l0.4,0.5c-0.5,0.4-1.1,0.8-1.9,0.8
				C686.3,251.3,685.4,250.2,685.4,248.6z"/>
		</g>
	</g>
	<g>
		<g class="st9">
			<path class="st10" d="M660.9,259.5c0-2.1,1.3-4.2,3.5-4.2c0.8,0,1.3,0.4,1.7,1l-0.5,0.4c-0.3-0.4-0.6-0.7-1.1-0.7
				c-1.6,0-2.6,1.8-2.6,3.4c0,1.2,0.5,2.1,1.7,2.1c0.5,0,0.9-0.2,1.1-0.4l0.4-1.8h-1.4l0.1-0.6h2.1l-0.6,2.8
				c-0.5,0.4-1.1,0.7-1.9,0.7C661.7,262.1,660.9,261.1,660.9,259.5z"/>
			<path class="st10" d="M669,256.1h-1.9l0.1-0.7h4.6l-0.1,0.7h-1.9l-1.2,5.9h-0.8L669,256.1z"/>
			<path class="st10" d="M671.9,259.5c0-2.1,1.4-4.2,3.4-4.2c0.7,0,1.3,0.4,1.6,1l-0.5,0.4c-0.3-0.4-0.6-0.7-1.1-0.7
				c-1.6,0-2.5,1.8-2.5,3.4c0,1.2,0.5,2,1.7,2c0.5,0,1-0.2,1.4-0.6l0.4,0.5c-0.5,0.4-1.1,0.8-1.9,0.8
				C672.7,262.1,671.9,261.1,671.9,259.5z"/>
		</g>
	</g>
	<g>
		<g class="st9">
			<path class="st10" d="M639.9,259.2c0-2.1,1.3-4.2,3.5-4.2c0.8,0,1.3,0.4,1.7,1l-0.5,0.4c-0.3-0.4-0.6-0.7-1.1-0.7
				c-1.6,0-2.6,1.8-2.6,3.4c0,1.2,0.5,2.1,1.7,2.1c0.5,0,0.9-0.2,1.1-0.4l0.4-1.8h-1.4l0.1-0.6h2.1l-0.6,2.8
				c-0.5,0.4-1.1,0.7-1.9,0.7C640.8,261.8,639.9,260.8,639.9,259.2z"/>
			<path class="st10" d="M648.1,255.8h-1.9l0.1-0.7h4.6l-0.1,0.7h-1.9l-1.2,5.9h-0.8L648.1,255.8z"/>
			<path class="st10" d="M650.9,259.2c0-2.1,1.4-4.2,3.4-4.2c0.7,0,1.3,0.4,1.6,1l-0.5,0.4c-0.3-0.4-0.6-0.7-1.1-0.7
				c-1.6,0-2.5,1.8-2.5,3.4c0,1.2,0.5,2,1.7,2c0.5,0,1-0.2,1.4-0.6l0.4,0.5c-0.5,0.4-1.1,0.8-1.9,0.8
				C651.8,261.8,650.9,260.8,650.9,259.2z"/>
		</g>
	</g>
	<g>
		<g class="st9">
			<path class="st10" d="M650.7,248.5c0-2.1,1.3-4.2,3.5-4.2c0.8,0,1.3,0.4,1.7,1l-0.5,0.4c-0.3-0.4-0.6-0.7-1.1-0.7
				c-1.6,0-2.6,1.8-2.6,3.4c0,1.2,0.5,2.1,1.7,2.1c0.5,0,0.9-0.2,1.1-0.4l0.4-1.8h-1.4l0.1-0.6h2.1l-0.6,2.8
				c-0.5,0.4-1.1,0.7-1.9,0.7C651.5,251.2,650.7,250.1,650.7,248.5z"/>
			<path class="st10" d="M658.8,245.2h-1.9l0.1-0.7h4.6l-0.1,0.7h-1.9l-1.2,5.9h-0.8L658.8,245.2z"/>
			<path class="st10" d="M661.7,248.5c0-2.1,1.4-4.2,3.4-4.2c0.7,0,1.3,0.4,1.6,1l-0.5,0.4c-0.3-0.4-0.6-0.7-1.1-0.7
				c-1.6,0-2.5,1.8-2.5,3.4c0,1.2,0.5,2,1.7,2c0.5,0,1-0.2,1.4-0.6l0.4,0.5c-0.5,0.4-1.1,0.8-1.9,0.8
				C662.5,251.2,661.7,250.1,661.7,248.5z"/>
		</g>
	</g>
	<g>
		<g class="st9">
			<path class="st10" d="M641,237.8c0-2.1,1.3-4.2,3.5-4.2c0.8,0,1.3,0.4,1.7,1l-0.5,0.4c-0.3-0.4-0.6-0.7-1.1-0.7
				c-1.6,0-2.6,1.8-2.6,3.4c0,1.2,0.5,2.1,1.7,2.1c0.5,0,0.9-0.2,1.1-0.4l0.4-1.8h-1.4l0.1-0.6h2.1l-0.6,2.8
				c-0.5,0.4-1.1,0.7-1.9,0.7C641.8,240.5,641,239.4,641,237.8z"/>
			<path class="st10" d="M649.1,234.4h-1.9l0.1-0.7h4.6l-0.1,0.7h-1.9l-1.2,5.9H648L649.1,234.4z"/>
			<path class="st10" d="M652,237.8c0-2.1,1.4-4.2,3.4-4.2c0.7,0,1.3,0.4,1.6,1l-0.5,0.4c-0.3-0.4-0.6-0.7-1.1-0.7
				c-1.6,0-2.5,1.8-2.5,3.4c0,1.2,0.5,2,1.7,2c0.5,0,1-0.2,1.4-0.6l0.4,0.5c-0.5,0.4-1.1,0.8-1.9,0.8
				C652.8,240.5,652,239.4,652,237.8z"/>
		</g>
	</g>
	<g>
		<g class="st9">
			<path class="st10" d="M662.8,237.8c0-2.1,1.3-4.2,3.5-4.2c0.8,0,1.3,0.4,1.7,1l-0.5,0.4c-0.3-0.4-0.6-0.7-1.1-0.7
				c-1.6,0-2.6,1.8-2.6,3.4c0,1.2,0.5,2.1,1.7,2.1c0.5,0,0.9-0.2,1.1-0.4l0.4-1.8h-1.4l0.1-0.6h2.1l-0.6,2.8
				c-0.5,0.4-1.1,0.7-1.9,0.7C663.7,240.5,662.8,239.4,662.8,237.8z"/>
			<path class="st10" d="M671,234.4h-1.9l0.1-0.7h4.6l-0.1,0.7h-1.9l-1.2,5.9h-0.8L671,234.4z"/>
			<path class="st10" d="M673.8,237.8c0-2.1,1.4-4.2,3.4-4.2c0.7,0,1.3,0.4,1.6,1l-0.5,0.4c-0.3-0.4-0.6-0.7-1.1-0.7
				c-1.6,0-2.5,1.8-2.5,3.4c0,1.2,0.5,2,1.7,2c0.5,0,1-0.2,1.4-0.6l0.4,0.5c-0.5,0.4-1.1,0.8-1.9,0.8
				C674.6,240.5,673.8,239.4,673.8,237.8z"/>
		</g>
	</g>
	<g>
		<g class="st9">
			<path class="st10" d="M690.5,238.4c0-2.1,1.3-4.2,3.5-4.2c0.8,0,1.3,0.4,1.7,1l-0.5,0.4c-0.3-0.4-0.6-0.7-1.1-0.7
				c-1.6,0-2.6,1.8-2.6,3.4c0,1.2,0.5,2.1,1.7,2.1c0.5,0,0.9-0.2,1.1-0.4l0.4-1.8h-1.4l0.1-0.6h2.1l-0.6,2.8
				c-0.5,0.4-1.1,0.7-1.9,0.7C691.4,241,690.5,239.9,690.5,238.4z"/>
			<path class="st10" d="M698.7,235h-1.9l0.1-0.7h4.6l-0.1,0.7h-1.9l-1.2,5.9h-0.8L698.7,235z"/>
			<path class="st10" d="M701.5,238.4c0-2.1,1.4-4.2,3.4-4.2c0.7,0,1.3,0.4,1.6,1l-0.5,0.4c-0.3-0.4-0.6-0.7-1.1-0.7
				c-1.6,0-2.5,1.8-2.5,3.4c0,1.2,0.5,2,1.7,2c0.5,0,1-0.2,1.4-0.6l0.4,0.5c-0.5,0.4-1.1,0.8-1.9,0.8
				C702.3,241,701.5,239.9,701.5,238.4z"/>
		</g>
	</g>
	<g>
		<g class="st9">
			<path class="st10" d="M687.3,227.5c0-2.1,1.3-4.2,3.5-4.2c0.8,0,1.3,0.4,1.7,1l-0.5,0.4c-0.3-0.4-0.6-0.7-1.1-0.7
				c-1.6,0-2.6,1.8-2.6,3.4c0,1.2,0.5,2.1,1.7,2.1c0.5,0,0.9-0.2,1.1-0.4l0.4-1.8H690l0.1-0.6h2.1l-0.6,2.8
				c-0.5,0.4-1.1,0.7-1.9,0.7C688.2,230.1,687.3,229.1,687.3,227.5z"/>
			<path class="st10" d="M695.5,224.1h-1.9l0.1-0.7h4.6l-0.1,0.7h-1.9l-1.2,5.9h-0.8L695.5,224.1z"/>
			<path class="st10" d="M698.3,227.5c0-2.1,1.4-4.2,3.4-4.2c0.7,0,1.3,0.4,1.6,1l-0.5,0.4c-0.3-0.4-0.6-0.7-1.1-0.7
				c-1.6,0-2.5,1.8-2.5,3.4c0,1.2,0.5,2,1.7,2c0.5,0,1-0.2,1.4-0.6l0.4,0.5c-0.5,0.4-1.1,0.8-1.9,0.8
				C699.1,230.1,698.3,229.1,698.3,227.5z"/>
		</g>
	</g>
	<g>
		<g class="st9">
			<path class="st10" d="M663.4,227.2c0-2.1,1.3-4.2,3.5-4.2c0.8,0,1.3,0.4,1.7,1l-0.5,0.4c-0.3-0.4-0.6-0.7-1.1-0.7
				c-1.6,0-2.6,1.8-2.6,3.4c0,1.2,0.5,2.1,1.7,2.1c0.5,0,0.9-0.2,1.1-0.4l0.4-1.8h-1.4l0.1-0.6h2.1l-0.6,2.8
				c-0.5,0.4-1.1,0.7-1.9,0.7C664.2,229.9,663.4,228.8,663.4,227.2z"/>
			<path class="st10" d="M671.5,223.9h-1.9l0.1-0.7h4.6l-0.1,0.7h-1.9l-1.2,5.9h-0.8L671.5,223.9z"/>
			<path class="st10" d="M674.4,227.2c0-2.1,1.4-4.2,3.4-4.2c0.7,0,1.3,0.4,1.6,1l-0.5,0.4c-0.3-0.4-0.6-0.7-1.1-0.7
				c-1.6,0-2.5,1.8-2.5,3.4c0,1.2,0.5,2,1.7,2c0.5,0,1-0.2,1.4-0.6l0.4,0.5c-0.5,0.4-1.1,0.8-1.9,0.8
				C675.2,229.9,674.4,228.8,674.4,227.2z"/>
		</g>
	</g>
	<g>
		<g class="st9">
			<path class="st10" d="M637.4,227.7c0-2.1,1.3-4.2,3.5-4.2c0.8,0,1.3,0.4,1.7,1l-0.5,0.4c-0.3-0.4-0.6-0.7-1.1-0.7
				c-1.6,0-2.6,1.8-2.6,3.4c0,1.2,0.5,2.1,1.7,2.1c0.5,0,0.9-0.2,1.1-0.4l0.4-1.8H640l0.1-0.6h2.1l-0.6,2.8
				c-0.5,0.4-1.1,0.7-1.9,0.7C638.2,230.3,637.4,229.3,637.4,227.7z"/>
			<path class="st10" d="M645.5,224.3h-1.9l0.1-0.7h4.6l-0.1,0.7h-1.9l-1.2,5.9h-0.8L645.5,224.3z"/>
			<path class="st10" d="M648.3,227.7c0-2.1,1.4-4.2,3.4-4.2c0.7,0,1.3,0.4,1.6,1l-0.5,0.4c-0.3-0.4-0.6-0.7-1.1-0.7
				c-1.6,0-2.5,1.8-2.5,3.4c0,1.2,0.5,2,1.7,2c0.5,0,1-0.2,1.4-0.6l0.4,0.5c-0.5,0.4-1.1,0.8-1.9,0.8
				C649.2,230.3,648.3,229.2,648.3,227.7z"/>
		</g>
	</g>
	<g>
		<g class="st9">
			<path class="st10" d="M632.1,248.5c0-2.1,1.3-4.2,3.5-4.2c0.8,0,1.3,0.4,1.7,1l-0.5,0.4c-0.3-0.4-0.6-0.7-1.1-0.7
				c-1.6,0-2.6,1.8-2.6,3.4c0,1.2,0.5,2.1,1.7,2.1c0.5,0,0.9-0.2,1.1-0.4l0.4-1.8h-1.4l0.1-0.6h2.1l-0.6,2.8
				c-0.5,0.4-1.1,0.7-1.9,0.7C633,251.2,632.1,250.1,632.1,248.5z"/>
			<path class="st10" d="M640.3,245.2h-1.9l0.1-0.7h4.6l-0.1,0.7H641l-1.2,5.9h-0.8L640.3,245.2z"/>
			<path class="st10" d="M643.1,248.5c0-2.1,1.4-4.2,3.4-4.2c0.7,0,1.3,0.4,1.6,1l-0.5,0.4c-0.3-0.4-0.6-0.7-1.1-0.7
				c-1.6,0-2.5,1.8-2.5,3.4c0,1.2,0.5,2,1.7,2c0.5,0,1-0.2,1.4-0.6l0.4,0.5c-0.5,0.4-1.1,0.8-1.9,0.8
				C643.9,251.2,643.1,250.1,643.1,248.5z"/>
		</g>
	</g>
</g>
<g id="Capa_1">
	<text transform="matrix(1 0 0 1 182.2659 358.7636)" class="st11 st12">get</text>
	<text transform="matrix(1 0 0 1 428.2303 339.2896)" class="st13 st11 st14">_.</text>
	<text transform="matrix(1 0 0 1 470.9559 270.481)"><tspan x="0" y="0" class="st15 st16 st17">M</tspan><tspan x="87.1" y="0" class="st18 st16 st17">N</tspan><tspan x="162.5" y="0" class="st16 st17">V</tspan></text>
	<rect x="448" y="254.9" class="st6" width="4.9" height="31.1"/>
	<rect x="448" y="280.8" class="st6" width="266.2" height="5.2"/>
	<rect x="709.7" y="254.9" class="st6" width="4.9" height="31.1"/>
</g>
</svg>
